#N canvas 0 23 1277 669 8;
#N canvas 79 153 1165 523 osc-communication 0;
#X obj 861 172 route received total from multicast;
#X obj 654 148 mrpeach/unpackOSC;
#X obj 64 151 mrpeach/packOSC;
#X msg 165 327 multicast_loopback \$1;
#X obj 64 389 mrpeach/udpsend;
#X text 884 104 RECEPTION DONNEE DE CONFIRMATION;
#X text 884 124 et print sur la fenetre principale pd;
#X obj 64 130 spigot 0;
#X msg 654 37 status;
#X msg 200 270 disconnect;
#X obj 964 300 unpack 0 0 0 0 0;
#X obj 951 328 sprintf %d.%d.%d.%d:%d;
#X obj 173 210 sel 1;
#X obj 654 170 spigot 1;
#X obj 654 192 print receive;
#X obj 951 350 symbol;
#X obj 300 100 cnv 15 220 280 empty empty COMMUNICATION 40 20 0 14
-203904 -66577 0;
#X obj 426 159 tgl 15 0 nos nor log 20 7 0 10 -262144 -1 -1 0 1;
#X obj 312 110 tgl 20 0 nos EMERGENCY empty 24 10 0 10 -4034 -1 -1
0 1;
#X obj 426 138 tgl 15 0 nos nor empty 20 7 0 10 -262144 -1 -1 0 1;
#X text 306 203 bytes received:;
#X text 307 237 total bytes received:;
#X floatatom 426 203 9 0 0 0 - received nos, f 9;
#X floatatom 426 237 9 0 0 0 - total nos, f 9;
#X obj 371 298 tgl 15 0 nos multicast empty 20 7 0 10 -203904 -1 -1
0 1;
#X symbolatom 371 269 20 0 0 0 - from nos, f 20;
#X text 308 267 from:;
#X obj 64 93 r SEND_OSC;
#X text 63 66 ENVOIS DES DONNÉES;
#X text 688 64 args: PORT + address d'écoute;
#X obj 840 204 s received;
#X obj 912 204 s total;
#X obj 1016 204 s multicast;
#X text 310 300 multicast:;
#X obj 951 372 s from;
#X obj 875 375 print form;
#X obj 654 84 mrpeach/udpreceive 3000 192.168.1.255;
#X text 448 133 multicast loopback, f 13;
#X msg 116 245 connect 192.168.10.22 3000;
#X connect 0 0 30 0;
#X connect 0 1 31 0;
#X connect 0 2 10 0;
#X connect 0 3 32 0;
#X connect 1 0 13 0;
#X connect 2 0 4 0;
#X connect 3 0 4 0;
#X connect 7 0 2 0;
#X connect 8 0 36 0;
#X connect 9 0 4 0;
#X connect 10 0 11 0;
#X connect 10 1 11 1;
#X connect 10 2 11 2;
#X connect 10 3 11 3;
#X connect 10 4 11 4;
#X connect 11 0 15 0;
#X connect 12 0 38 0;
#X connect 12 1 9 0;
#X connect 13 0 14 0;
#X connect 15 0 34 0;
#X connect 17 0 13 1;
#X connect 18 0 12 0;
#X connect 18 0 7 1;
#X connect 19 0 3 0;
#X connect 27 0 7 0;
#X connect 36 0 1 0;
#X connect 36 1 0 0;
#X connect 36 1 35 0;
#X connect 38 0 4 0;
#X coords 0 -1 1 1 220 280 1 300 100;
#X restore 1 103 pd osc-communication;
#X obj 1 1 cnv 15 220 100 empty empty SNIPER 12 20 0 36 -233017 -66577
0;
#X text 14 35 Robots console - v1.0;
#N canvas 271 64 858 583 robot_1 0;
#X obj 200 431 cnv 15 220 50 empty empty empty 40 21 0 14 -258113 -1
0;
#X text 234 129 open file;
#X obj 540 100 s in_hold_dec;
#X obj 555 142 s in_hold_inc;
#X obj 616 101 s in_sell_dec;
#X obj 628 142 s in_sell_inc;
#X floatatom 371 458 5 0 0 0 - - -, f 5;
#X obj 692 102 s in_buy_dec;
#X obj 702 141 s in_buy_inc;
#X obj 200 101 cnv 15 220 100 empty empty empty 40 21 0 14 -249661
-1 0;
#X obj 200 199 cnv 15 220 230 empty empty empty 40 21 0 14 -204736
-1 0;
#X obj 224 226 hsl 140 15 0 255 0 0 nos nor empty -2 -8 0 10 -262144
-1 -1 0 0;
#X obj 224 262 hsl 140 15 0 255 0 0 nos nor empty -2 -8 0 10 -262144
-1 -1 0 0;
#X floatatom 373 229 5 0 0 0 - - -, f 5;
#X floatatom 374 264 5 0 0 0 - - -, f 5;
#X obj 224 299 hsl 140 15 0 255 0 0 nos nor empty -2 -8 0 10 -262144
-1 -1 0 0;
#X obj 224 334 hsl 140 15 0 255 0 0 nos nor empty -2 -8 0 10 -262144
-1 -1 0 0;
#X floatatom 374 301 5 0 0 0 - - -, f 5;
#X floatatom 374 334 5 0 0 0 - - -, f 5;
#X obj 223 369 hsl 140 15 0 255 0 0 nos nor empty -2 -8 0 10 -262144
-1 -1 0 0;
#X obj 222 404 hsl 140 15 0 255 0 0 nos nor empty -2 -8 0 10 -262144
-1 -1 0 0;
#X floatatom 372 372 5 0 0 0 - - -, f 5;
#X floatatom 373 405 5 0 0 0 - - -, f 5;
#X obj 213 129 bng 15 250 50 0 nos nor empty 0 -10 0 10 -262144 -1
-1;
#X text 234 129 open file;
#X obj 213 151 tgl 15 0 nos nor loop 20 7 0 10 -262144 -1 -1 0 1;
#X text 244 106 : ROBOT 1 - AAPL;
#X obj 220 455 hsl 140 15 0 255 0 0 nos nor empty -2 -8 0 10 -262144
-1 -1 0 0;
#X text 217 438 Confidence;
#X obj 90 386 r in_sell_dec;
#X obj 92 352 r in_sell_inc;
#X obj 91 314 r in_hold_dec;
#X obj 91 281 r in_hold_inc;
#X obj 93 246 r in_buy_dec;
#X obj 93 209 r in_buy_inc;
#X obj 456 168 i;
#X obj 456 214 s SEND_OSC;
#X obj 691 198 i;
#X obj 691 244 s SEND_OSC;
#X obj 458 254 i;
#X obj 458 300 s SEND_OSC;
#X obj 698 284 i;
#X obj 698 330 s SEND_OSC;
#X obj 461 330 i;
#X obj 461 376 s SEND_OSC;
#X obj 696 365 i;
#X obj 696 411 s SEND_OSC;
#X obj 466 428 i;
#X obj 466 474 s SEND_OSC;
#X obj 90 140 s open;
#X obj 546 13 r open;
#X obj 81 96 s start;
#X obj 634 12 r start;
#X obj 90 164 s loop;
#X text 222 209 Buy Increase;
#X text 221 245 Buy Decrease;
#X text 221 284 Hold Increase;
#X text 221 320 Hold Decrease;
#X text 222 354 Sell Increase;
#X text 220 389 Sell Decrease;
#X msg 456 192 /ROBOT_1/BUY_UP \$1;
#X msg 691 222 /ROBOT_1/BUY_DOWN \$1;
#X msg 458 278 /ROBOT_1/HOLD_UP \$1;
#X msg 698 308 /ROBOT_1/HOLD_DOWN \$1;
#X msg 461 354 /ROBOT_1/SELL_UP \$1;
#X msg 696 389 /ROBOT_1/SELL_DOWN \$1;
#X msg 466 452 /ROBOT_1/CONF \$1;
#X msg 390 49 0;
#X obj 381 116 bng 15 250 50 0 empty empty Reset -5 -5 0 10 -258113
-1 -1;
#X obj 397 78 s reset;
#X obj 467 61 r reset;
#X obj 472 124 r reset;
#X text 547 34 !!! TRADEBOT + Acronyme Action !!!;
#X obj 445 100 s conf;
#X obj 93 425 r conf;
#X obj 388 21 r reset_all;
#X obj 803 48 r loop;
#X obj 782 82 spigot 0;
#X msg 784 111 0;
#X text 675 69 !!! when EOF hit a bang so reset !!!;
#X obj 213 106 tgl 15 0 nos nor empty 17 7 0 10 -257985 -1 -1 0 1;
#X obj 791 140 s reset;
#X obj 790 13 r reset;
#X obj 75 26 r pulse;
#X obj 80 64 spigot 0;
#X obj 546 50 tradebot AAPL, f 35;
#X connect 11 0 35 0;
#X connect 12 0 37 0;
#X connect 15 0 39 0;
#X connect 16 0 41 0;
#X connect 19 0 43 0;
#X connect 20 0 45 0;
#X connect 23 0 49 0;
#X connect 25 0 53 0;
#X connect 27 0 47 0;
#X connect 29 0 20 0;
#X connect 30 0 19 0;
#X connect 31 0 16 0;
#X connect 32 0 15 0;
#X connect 33 0 12 0;
#X connect 34 0 11 0;
#X connect 35 0 60 0;
#X connect 35 0 13 0;
#X connect 37 0 61 0;
#X connect 37 0 14 0;
#X connect 39 0 62 0;
#X connect 39 0 17 0;
#X connect 41 0 63 0;
#X connect 41 0 18 0;
#X connect 43 0 64 0;
#X connect 43 0 21 0;
#X connect 45 0 65 0;
#X connect 45 0 22 0;
#X connect 47 0 66 0;
#X connect 47 0 6 0;
#X connect 50 0 85 0;
#X connect 52 0 85 1;
#X connect 60 0 36 0;
#X connect 61 0 38 0;
#X connect 62 0 40 0;
#X connect 63 0 42 0;
#X connect 64 0 44 0;
#X connect 65 0 46 0;
#X connect 66 0 48 0;
#X connect 67 0 69 0;
#X connect 68 0 67 0;
#X connect 70 0 2 0;
#X connect 70 0 4 0;
#X connect 70 0 7 0;
#X connect 70 0 73 0;
#X connect 71 0 3 0;
#X connect 71 0 5 0;
#X connect 71 0 8 0;
#X connect 74 0 27 0;
#X connect 75 0 67 0;
#X connect 76 0 77 1;
#X connect 77 0 78 0;
#X connect 78 0 81 0;
#X connect 80 0 84 1;
#X connect 82 0 85 2;
#X connect 83 0 84 0;
#X connect 84 0 51 0;
#X connect 85 0 73 0;
#X connect 85 1 2 0;
#X connect 85 2 3 0;
#X connect 85 3 4 0;
#X connect 85 4 5 0;
#X connect 85 5 7 0;
#X connect 85 6 8 0;
#X connect 85 7 77 0;
#X coords 0 -1 1 1 220 380 1 200 100;
#X restore 224 1 pd robot_1;
#N canvas 136 23 1071 644 robot_2 0;
#X obj 200 431 cnv 15 220 50 empty empty empty 40 21 0 14 -258113 -1
0;
#X text 234 129 open file;
#X floatatom 371 458 5 0 0 0 - - -, f 5;
#X obj 200 101 cnv 15 220 100 empty empty empty 40 21 0 14 -249661
-1 0;
#X obj 200 199 cnv 15 220 230 empty empty empty 40 21 0 14 -204736
-1 0;
#X obj 224 226 hsl 140 15 0 255 0 0 nos nor empty -2 -8 0 10 -262144
-1 -1 0 0;
#X obj 224 262 hsl 140 15 0 255 0 0 nos nor empty -2 -8 0 10 -262144
-1 -1 0 0;
#X floatatom 373 229 5 0 0 0 - - -, f 5;
#X floatatom 374 264 5 0 0 0 - - -, f 5;
#X obj 224 299 hsl 140 15 0 255 0 0 nos nor empty -2 -8 0 10 -262144
-1 -1 0 0;
#X obj 224 334 hsl 140 15 0 255 0 0 nos nor empty -2 -8 0 10 -262144
-1 -1 0 0;
#X floatatom 374 301 5 0 0 0 - - -, f 5;
#X floatatom 374 334 5 0 0 0 - - -, f 5;
#X obj 223 369 hsl 140 15 0 255 0 0 nos nor empty -2 -8 0 10 -262144
-1 -1 0 0;
#X obj 222 404 hsl 140 15 0 255 0 0 nos nor empty -2 -8 0 10 -262144
-1 -1 0 0;
#X floatatom 372 372 5 0 0 0 - - -, f 5;
#X floatatom 373 405 5 0 0 0 - - -, f 5;
#X obj 213 129 bng 15 250 50 0 nos nor empty 0 -10 0 10 -262144 -1
-1;
#X text 234 129 open file;
#X obj 213 151 tgl 15 0 nos nor loop 20 7 0 10 -262144 -1 -1 0 1;
#X obj 220 455 hsl 140 15 0 255 0 0 nos nor empty -2 -8 0 10 -262144
-1 -1 0 0;
#X text 217 438 Confidence;
#X obj 456 168 i;
#X obj 456 214 s SEND_OSC;
#X obj 691 198 i;
#X obj 691 244 s SEND_OSC;
#X obj 458 254 i;
#X obj 458 300 s SEND_OSC;
#X obj 698 284 i;
#X obj 698 330 s SEND_OSC;
#X obj 461 330 i;
#X obj 461 376 s SEND_OSC;
#X obj 696 365 i;
#X obj 696 411 s SEND_OSC;
#X obj 466 428 i;
#X obj 466 474 s SEND_OSC;
#X text 222 209 Buy Increase;
#X text 221 245 Buy Decrease;
#X text 221 284 Hold Increase;
#X text 221 320 Hold Decrease;
#X text 222 354 Sell Increase;
#X text 220 389 Sell Decrease;
#X msg 390 49 0;
#X obj 381 116 bng 15 250 50 0 empty empty Reset -5 -5 0 10 -258113
-1 -1;
#X text 547 34 !!! TRADEBOT + Acronyme Action !!!;
#X obj 388 21 r reset_all;
#X obj 782 82 spigot 0;
#X msg 784 111 0;
#X text 675 69 !!! when EOF hit a bang so reset !!!;
#X obj 213 106 tgl 15 0 nos nor empty 17 7 0 10 -257985 -1 -1 0 1;
#X obj 89 117 s start_2;
#X obj 90 140 s open_2;
#X obj 90 164 s loop_2;
#X obj 93 209 r in_buy_inc_2;
#X obj 93 246 r in_buy_dec_2;
#X obj 91 281 r in_hold_inc_2;
#X obj 91 314 r in_hold_dec_2;
#X obj 92 352 r in_sell_inc_2;
#X obj 90 386 r in_sell_dec_2;
#X obj 93 425 r conf_2;
#X obj 399 76 s reset_2;
#X obj 546 13 r open_2;
#X obj 634 12 r start_2;
#X obj 803 48 r loop_2;
#X obj 527 101 s in_hold_dec_2;
#X obj 611 100 s in_sell_dec_2;
#X obj 692 100 s in_buy_dec_2;
#X obj 543 142 s in_hold_inc_2;
#X obj 625 141 s in_sell_inc_2;
#X obj 707 141 s in_buy_inc_2;
#X text 244 106 : ROBOT 2 - FACEBOOK;
#X obj 722 10 r reset_2;
#X obj 467 61 r reset_2;
#X obj 467 124 r reset_2;
#X obj 791 140 s reset_2;
#X obj 445 100 s conf_2;
#X obj 546 50 tradebot FB, f 35;
#X obj 86 26 r pulse;
#X obj 87 84 spigot 0;
#X obj 87 57 delay 10;
#X msg 456 192 /ROBOT_2/BUY_UP \$1;
#X msg 458 278 /ROBOT_2/HOLD_UP \$1;
#X msg 691 222 /ROBOT_2/BUY_DOWN \$1;
#X msg 461 354 /ROBOT_2/SELL_UP \$1;
#X msg 698 308 /ROBOT_2/HOLD_DOWN \$1;
#X msg 696 389 /ROBOT_2/SELL_DOWN \$1;
#X msg 466 452 /ROBOT_2/CONF \$1;
#X connect 5 0 22 0;
#X connect 6 0 24 0;
#X connect 9 0 26 0;
#X connect 10 0 28 0;
#X connect 13 0 30 0;
#X connect 14 0 32 0;
#X connect 17 0 51 0;
#X connect 19 0 52 0;
#X connect 20 0 34 0;
#X connect 22 0 80 0;
#X connect 22 0 7 0;
#X connect 24 0 82 0;
#X connect 24 0 8 0;
#X connect 26 0 81 0;
#X connect 26 0 11 0;
#X connect 28 0 84 0;
#X connect 28 0 12 0;
#X connect 30 0 83 0;
#X connect 30 0 15 0;
#X connect 32 0 85 0;
#X connect 32 0 16 0;
#X connect 34 0 86 0;
#X connect 34 0 2 0;
#X connect 42 0 60 0;
#X connect 43 0 42 0;
#X connect 45 0 42 0;
#X connect 46 0 47 0;
#X connect 47 0 74 0;
#X connect 49 0 78 1;
#X connect 53 0 5 0;
#X connect 54 0 6 0;
#X connect 55 0 9 0;
#X connect 56 0 10 0;
#X connect 57 0 13 0;
#X connect 58 0 14 0;
#X connect 59 0 20 0;
#X connect 61 0 76 0;
#X connect 62 0 76 1;
#X connect 63 0 46 1;
#X connect 71 0 76 2;
#X connect 72 0 64 0;
#X connect 72 0 65 0;
#X connect 72 0 66 0;
#X connect 72 0 75 0;
#X connect 73 0 67 0;
#X connect 73 0 68 0;
#X connect 73 0 69 0;
#X connect 76 0 75 0;
#X connect 76 1 64 0;
#X connect 76 2 67 0;
#X connect 76 3 65 0;
#X connect 76 4 68 0;
#X connect 76 5 66 0;
#X connect 76 6 69 0;
#X connect 76 7 46 0;
#X connect 77 0 79 0;
#X connect 78 0 50 0;
#X connect 79 0 78 0;
#X connect 80 0 23 0;
#X connect 81 0 27 0;
#X connect 82 0 25 0;
#X connect 83 0 31 0;
#X connect 84 0 29 0;
#X connect 85 0 33 0;
#X connect 86 0 35 0;
#X coords 0 -1 1 1 220 380 1 200 100;
#X restore 446 1 pd robot_2;
#N canvas 35 82 1075 676 robot_3 0;
#X obj 200 431 cnv 15 220 50 empty empty empty 40 21 0 14 -258113 -1
0;
#X text 234 129 open file;
#X floatatom 371 458 5 0 0 0 - - -, f 5;
#X obj 200 101 cnv 15 220 100 empty empty empty 40 21 0 14 -249661
-1 0;
#X obj 200 199 cnv 15 220 230 empty empty empty 40 21 0 14 -204736
-1 0;
#X obj 224 226 hsl 140 15 0 255 0 0 nos nor empty -2 -8 0 10 -262144
-1 -1 0 0;
#X obj 224 262 hsl 140 15 0 255 0 0 nos nor empty -2 -8 0 10 -262144
-1 -1 0 0;
#X floatatom 373 229 5 0 0 0 - - -, f 5;
#X floatatom 374 264 5 0 0 0 - - -, f 5;
#X obj 224 299 hsl 140 15 0 255 0 0 nos nor empty -2 -8 0 10 -262144
-1 -1 0 0;
#X obj 224 334 hsl 140 15 0 255 0 0 nos nor empty -2 -8 0 10 -262144
-1 -1 0 0;
#X floatatom 374 301 5 0 0 0 - - -, f 5;
#X floatatom 374 334 5 0 0 0 - - -, f 5;
#X obj 223 369 hsl 140 15 0 255 0 0 nos nor empty -2 -8 0 10 -262144
-1 -1 0 0;
#X obj 222 404 hsl 140 15 0 255 0 0 nos nor empty -2 -8 0 10 -262144
-1 -1 0 0;
#X floatatom 372 372 5 0 0 0 - - -, f 5;
#X floatatom 373 405 5 0 0 0 - - -, f 5;
#X obj 213 129 bng 15 250 50 0 nos nor empty 0 -10 0 10 -262144 -1
-1;
#X text 234 129 open file;
#X obj 213 151 tgl 15 0 nos nor loop 20 7 0 10 -262144 -1 -1 0 1;
#X obj 220 455 hsl 140 15 0 255 0 0 nos nor empty -2 -8 0 10 -262144
-1 -1 0 0;
#X text 217 438 Confidence;
#X obj 456 168 i;
#X obj 456 214 s SEND_OSC;
#X obj 691 198 i;
#X obj 691 244 s SEND_OSC;
#X obj 458 254 i;
#X obj 458 300 s SEND_OSC;
#X obj 698 284 i;
#X obj 698 330 s SEND_OSC;
#X obj 461 330 i;
#X obj 461 376 s SEND_OSC;
#X obj 696 365 i;
#X obj 696 411 s SEND_OSC;
#X obj 466 428 i;
#X obj 466 474 s SEND_OSC;
#X text 222 209 Buy Increase;
#X text 221 245 Buy Decrease;
#X text 221 284 Hold Increase;
#X text 221 320 Hold Decrease;
#X text 222 354 Sell Increase;
#X text 220 389 Sell Decrease;
#X msg 390 49 0;
#X obj 381 116 bng 15 250 50 0 empty empty Reset -5 -5 0 10 -258113
-1 -1;
#X text 547 34 !!! TRADEBOT + Acronyme Action !!!;
#X obj 388 21 r reset_all;
#X obj 782 82 spigot 0;
#X msg 784 111 0;
#X text 675 69 !!! when EOF hit a bang so reset !!!;
#X obj 213 106 tgl 15 0 nos nor empty 17 7 0 10 -257985 -1 -1 0 1;
#X obj 89 117 s start_3;
#X obj 90 140 s open_3;
#X obj 90 164 s loop_3;
#X obj 93 209 r in_buy_inc_3;
#X obj 93 246 r in_buy_dec_3;
#X obj 91 281 r in_hold_inc_3;
#X obj 91 314 r in_hold_dec_3;
#X obj 92 352 r in_sell_inc_3;
#X obj 90 386 r in_sell_dec_3;
#X obj 93 425 r conf_3;
#X obj 399 76 s reset_3;
#X obj 467 61 r reset_3;
#X obj 546 13 r open_3;
#X obj 634 12 r start_3;
#X obj 790 13 r reset_3;
#X obj 803 48 r loop_3;
#X obj 445 100 s conf_3;
#X obj 527 101 s in_hold_dec_3;
#X obj 611 100 s in_sell_dec_3;
#X obj 692 100 s in_buy_dec_3;
#X obj 543 142 s in_hold_inc_3;
#X obj 625 141 s in_sell_inc_3;
#X obj 707 141 s in_buy_inc_3;
#X obj 791 140 s reset_3;
#X obj 467 124 r reset_3;
#X text 244 106 : ROBOT 3 - HSBC;
#X obj 546 50 tradebot HSBC, f 35;
#X obj 86 26 r pulse;
#X obj 87 84 spigot 0;
#X obj 87 57 delay 20;
#X msg 456 192 /ROBOT_3/BUY_UP \$1;
#X msg 458 278 /ROBOT_3/HOLD_UP \$1;
#X msg 461 354 /ROBOT_3/SELL_UP \$1;
#X msg 466 452 /ROBOT_3/CONF \$1;
#X msg 691 222 /ROBOT_3/BUY_DOWN \$1;
#X msg 698 308 /ROBOT_3/HOLD_DOWN \$1;
#X msg 696 389 /ROBOT_3/SELL_DOWN \$1;
#X connect 5 0 22 0;
#X connect 6 0 24 0;
#X connect 9 0 26 0;
#X connect 10 0 28 0;
#X connect 13 0 30 0;
#X connect 14 0 32 0;
#X connect 17 0 51 0;
#X connect 19 0 52 0;
#X connect 20 0 34 0;
#X connect 22 0 80 0;
#X connect 22 0 7 0;
#X connect 24 0 84 0;
#X connect 24 0 8 0;
#X connect 26 0 81 0;
#X connect 26 0 11 0;
#X connect 28 0 85 0;
#X connect 28 0 12 0;
#X connect 30 0 82 0;
#X connect 30 0 15 0;
#X connect 32 0 86 0;
#X connect 32 0 16 0;
#X connect 34 0 83 0;
#X connect 34 0 2 0;
#X connect 42 0 60 0;
#X connect 43 0 42 0;
#X connect 45 0 42 0;
#X connect 46 0 47 0;
#X connect 47 0 73 0;
#X connect 49 0 78 1;
#X connect 53 0 5 0;
#X connect 54 0 6 0;
#X connect 55 0 9 0;
#X connect 56 0 10 0;
#X connect 57 0 13 0;
#X connect 58 0 14 0;
#X connect 59 0 20 0;
#X connect 61 0 66 0;
#X connect 61 0 67 0;
#X connect 61 0 68 0;
#X connect 61 0 69 0;
#X connect 62 0 76 0;
#X connect 63 0 76 1;
#X connect 64 0 76 2;
#X connect 65 0 46 1;
#X connect 74 0 70 0;
#X connect 74 0 71 0;
#X connect 74 0 72 0;
#X connect 76 0 66 0;
#X connect 76 1 67 0;
#X connect 76 2 70 0;
#X connect 76 3 68 0;
#X connect 76 4 71 0;
#X connect 76 5 69 0;
#X connect 76 6 72 0;
#X connect 76 7 46 0;
#X connect 77 0 79 0;
#X connect 78 0 50 0;
#X connect 79 0 78 0;
#X connect 80 0 23 0;
#X connect 81 0 27 0;
#X connect 82 0 31 0;
#X connect 83 0 35 0;
#X connect 84 0 25 0;
#X connect 85 0 29 0;
#X connect 86 0 33 0;
#X coords 0 -1 1 1 220 380 1 200 100;
#X restore 668 1 pd robot_3;
#N canvas 57 23 938 502 robot_4 0;
#X obj 200 431 cnv 15 220 50 empty empty empty 40 21 0 14 -258113 -1
0;
#X text 234 129 open file;
#X floatatom 371 458 5 0 0 0 - - -, f 5;
#X obj 200 101 cnv 15 220 100 empty empty empty 40 21 0 14 -249661
-1 0;
#X obj 200 199 cnv 15 220 230 empty empty empty 40 21 0 14 -204736
-1 0;
#X obj 224 226 hsl 140 15 0 255 0 0 nos nor empty -2 -8 0 10 -262144
-1 -1 0 0;
#X obj 224 262 hsl 140 15 0 255 0 0 nos nor empty -2 -8 0 10 -262144
-1 -1 0 0;
#X floatatom 373 229 5 0 0 0 - - -, f 5;
#X floatatom 374 264 5 0 0 0 - - -, f 5;
#X obj 224 299 hsl 140 15 0 255 0 0 nos nor empty -2 -8 0 10 -262144
-1 -1 0 0;
#X obj 224 334 hsl 140 15 0 255 0 0 nos nor empty -2 -8 0 10 -262144
-1 -1 0 0;
#X floatatom 374 301 5 0 0 0 - - -, f 5;
#X floatatom 374 334 5 0 0 0 - - -, f 5;
#X obj 223 369 hsl 140 15 0 255 0 0 nos nor empty -2 -8 0 10 -262144
-1 -1 0 0;
#X obj 222 404 hsl 140 15 0 255 0 0 nos nor empty -2 -8 0 10 -262144
-1 -1 0 0;
#X floatatom 372 372 5 0 0 0 - - -, f 5;
#X floatatom 373 405 5 0 0 0 - - -, f 5;
#X obj 213 129 bng 15 250 50 0 nos nor empty 0 -10 0 10 -262144 -1
-1;
#X text 234 129 open file;
#X obj 213 151 tgl 15 0 nos nor loop 20 7 0 10 -262144 -1 -1 0 1;
#X obj 220 455 hsl 140 15 0 255 0 0 nos nor empty -2 -8 0 10 -262144
-1 -1 0 0;
#X text 217 438 Confidence;
#X obj 456 168 i;
#X obj 456 214 s SEND_OSC;
#X obj 691 198 i;
#X obj 691 244 s SEND_OSC;
#X obj 458 254 i;
#X obj 458 300 s SEND_OSC;
#X obj 698 284 i;
#X obj 698 330 s SEND_OSC;
#X obj 461 330 i;
#X obj 461 376 s SEND_OSC;
#X obj 696 365 i;
#X obj 696 411 s SEND_OSC;
#X obj 466 428 i;
#X obj 466 474 s SEND_OSC;
#X text 222 209 Buy Increase;
#X text 221 245 Buy Decrease;
#X text 221 284 Hold Increase;
#X text 221 320 Hold Decrease;
#X text 222 354 Sell Increase;
#X text 220 389 Sell Decrease;
#X msg 390 49 0;
#X obj 381 116 bng 15 250 50 0 empty empty Reset -5 -5 0 10 -258113
-1 -1;
#X text 547 34 !!! TRADEBOT + Acronyme Action !!!;
#X obj 388 21 r reset_all;
#X obj 782 82 spigot 0;
#X msg 784 111 0;
#X text 675 69 !!! when EOF hit a bang so reset !!!;
#X obj 213 106 tgl 15 0 nos nor empty 17 7 0 10 -257985 -1 -1 0 1;
#X text 244 106 : ROBOT 4 - GOLD;
#X obj 89 117 s start_4;
#X obj 90 140 s open_4;
#X obj 90 164 s loop_4;
#X obj 93 209 r in_buy_inc_4;
#X obj 93 246 r in_buy_dec_4;
#X obj 91 281 r in_hold_inc_4;
#X obj 91 314 r in_hold_dec_4;
#X obj 92 352 r in_sell_inc_4;
#X obj 90 386 r in_sell_dec_4;
#X obj 93 425 r conf_4;
#X obj 399 76 s reset_4;
#X obj 467 61 r reset_4;
#X obj 445 100 s conf_4;
#X obj 467 124 r reset_4;
#X obj 546 13 r open_4;
#X obj 634 12 r start_4;
#X obj 790 13 r reset_4;
#X obj 803 48 r loop_4;
#X obj 527 101 s in_hold_dec_4;
#X obj 611 100 s in_sell_dec_4;
#X obj 692 100 s in_buy_dec_4;
#X obj 543 142 s in_hold_inc_4;
#X obj 625 141 s in_sell_inc_4;
#X obj 707 141 s in_buy_inc_4;
#X obj 791 140 s reset_4;
#X obj 546 50 tradebot GLD, f 35;
#X obj 86 26 r pulse;
#X obj 87 84 spigot 0;
#X obj 87 57 delay 30;
#X msg 458 278 /ROBOT_4/HOLD_UP \$1;
#X msg 456 192 /ROBOT_4/BUY_UP \$1;
#X msg 691 222 /ROBOT_4/BUY_DOWN \$1;
#X msg 698 308 /ROBOT_4/HOLD_DOWN \$1;
#X msg 461 354 /ROBOT_4/SELL_UP \$1;
#X msg 696 389 /ROBOT_4/SELL_DOWN \$1;
#X msg 466 452 /ROBOT_4/CONF \$1;
#X connect 5 0 22 0;
#X connect 6 0 24 0;
#X connect 9 0 26 0;
#X connect 10 0 28 0;
#X connect 13 0 30 0;
#X connect 14 0 32 0;
#X connect 17 0 52 0;
#X connect 19 0 53 0;
#X connect 20 0 34 0;
#X connect 22 0 81 0;
#X connect 22 0 7 0;
#X connect 24 0 82 0;
#X connect 24 0 8 0;
#X connect 26 0 80 0;
#X connect 26 0 11 0;
#X connect 28 0 83 0;
#X connect 28 0 12 0;
#X connect 30 0 84 0;
#X connect 30 0 15 0;
#X connect 32 0 85 0;
#X connect 32 0 16 0;
#X connect 34 0 86 0;
#X connect 34 0 2 0;
#X connect 42 0 61 0;
#X connect 43 0 42 0;
#X connect 45 0 42 0;
#X connect 46 0 47 0;
#X connect 47 0 75 0;
#X connect 49 0 78 1;
#X connect 54 0 5 0;
#X connect 55 0 6 0;
#X connect 56 0 9 0;
#X connect 57 0 10 0;
#X connect 58 0 13 0;
#X connect 59 0 14 0;
#X connect 60 0 20 0;
#X connect 62 0 63 0;
#X connect 62 0 69 0;
#X connect 62 0 70 0;
#X connect 62 0 71 0;
#X connect 64 0 72 0;
#X connect 64 0 73 0;
#X connect 64 0 74 0;
#X connect 65 0 76 0;
#X connect 66 0 76 1;
#X connect 67 0 76 2;
#X connect 68 0 46 1;
#X connect 76 0 63 0;
#X connect 76 1 69 0;
#X connect 76 2 72 0;
#X connect 76 3 70 0;
#X connect 76 4 73 0;
#X connect 76 5 71 0;
#X connect 76 6 74 0;
#X connect 76 7 46 0;
#X connect 77 0 79 0;
#X connect 78 0 51 0;
#X connect 79 0 78 0;
#X connect 80 0 27 0;
#X connect 81 0 23 0;
#X connect 82 0 25 0;
#X connect 83 0 29 0;
#X connect 84 0 31 0;
#X connect 85 0 33 0;
#X connect 86 0 35 0;
#X coords 0 -1 1 1 220 380 1 200 100;
#X restore 890 1 pd robot_4;
#N canvas 113 25 884 653 robot_5 0;
#X obj 200 431 cnv 15 220 50 empty empty empty 40 21 0 14 -258113 -1
0;
#X text 234 129 open file;
#X floatatom 371 458 5 0 0 0 - - -, f 5;
#X obj 200 101 cnv 15 220 100 empty empty empty 40 21 0 14 -249661
-1 0;
#X obj 200 199 cnv 15 220 230 empty empty empty 40 21 0 14 -204736
-1 0;
#X obj 224 226 hsl 140 15 0 255 0 0 nos nor empty -2 -8 0 10 -262144
-1 -1 0 0;
#X obj 224 262 hsl 140 15 0 255 0 0 nos nor empty -2 -8 0 10 -262144
-1 -1 0 0;
#X floatatom 373 229 5 0 0 0 - - -, f 5;
#X floatatom 374 264 5 0 0 0 - - -, f 5;
#X obj 224 299 hsl 140 15 0 255 0 0 nos nor empty -2 -8 0 10 -262144
-1 -1 3000 0;
#X obj 224 334 hsl 140 15 0 255 0 0 nos nor empty -2 -8 0 10 -262144
-1 -1 0 0;
#X floatatom 374 301 5 0 0 0 - - -, f 5;
#X floatatom 374 334 5 0 0 0 - - -, f 5;
#X obj 223 369 hsl 140 15 0 255 0 0 nos nor empty -2 -8 0 10 -262144
-1 -1 0 0;
#X obj 222 404 hsl 140 15 0 255 0 0 nos nor empty -2 -8 0 10 -262144
-1 -1 0 0;
#X floatatom 372 372 5 0 0 0 - - -, f 5;
#X floatatom 373 405 5 0 0 0 - - -, f 5;
#X obj 213 129 bng 15 250 50 0 nos nor empty 0 -10 0 10 -262144 -1
-1;
#X text 234 129 open file;
#X obj 213 151 tgl 15 0 nos nor loop 20 7 0 10 -262144 -1 -1 0 1;
#X obj 220 455 hsl 140 15 0 255 0 0 nos nor empty -2 -8 0 10 -262144
-1 -1 0 0;
#X text 217 438 Confidence;
#X obj 456 168 i;
#X obj 456 214 s SEND_OSC;
#X obj 691 198 i;
#X obj 691 244 s SEND_OSC;
#X obj 458 254 i;
#X obj 458 300 s SEND_OSC;
#X obj 698 284 i;
#X obj 698 330 s SEND_OSC;
#X obj 461 330 i;
#X obj 461 376 s SEND_OSC;
#X obj 696 365 i;
#X obj 696 411 s SEND_OSC;
#X obj 466 428 i;
#X obj 466 474 s SEND_OSC;
#X text 222 209 Buy Increase;
#X text 221 245 Buy Decrease;
#X text 221 284 Hold Increase;
#X text 221 320 Hold Decrease;
#X text 222 354 Sell Increase;
#X text 220 389 Sell Decrease;
#X msg 390 49 0;
#X obj 381 116 bng 15 250 50 0 empty empty Reset -5 -5 0 10 -258113
-1 -1;
#X text 547 34 !!! TRADEBOT + Acronyme Action !!!;
#X obj 388 21 r reset_all;
#X obj 782 82 spigot 0;
#X msg 784 111 0;
#X text 675 69 !!! when EOF hit a bang so reset !!!;
#X obj 213 106 tgl 15 0 nos nor empty 17 7 0 10 -257985 -1 -1 0 1;
#X text 244 106 : ROBOT 5 - JVA;
#X obj 89 117 s start_5;
#X obj 90 140 s open_5;
#X obj 90 164 s loop_5;
#X obj 93 209 r in_buy_inc_5;
#X obj 93 246 r in_buy_dec_5;
#X obj 91 281 r in_hold_inc_5;
#X obj 91 314 r in_hold_dec_5;
#X obj 92 352 r in_sell_inc_5;
#X obj 90 386 r in_sell_dec_5;
#X obj 93 425 r conf_5;
#X obj 399 76 s reset_5;
#X obj 467 61 r reset_5;
#X obj 445 100 s conf_5;
#X obj 467 124 r reset_5;
#X obj 546 13 r open_5;
#X obj 634 12 r start_5;
#X obj 728 12 r reset_5;
#X obj 803 48 r loop_5;
#X obj 527 101 s in_hold_dec_5;
#X obj 611 100 s in_sell_dec_5;
#X obj 692 100 s in_buy_dec_5;
#X obj 543 142 s in_hold_inc_5;
#X obj 625 141 s in_sell_inc_5;
#X obj 707 141 s in_buy_inc_5;
#X obj 791 140 s reset_5;
#X obj 546 50 tradebot JVA, f 35;
#X obj 86 26 r pulse;
#X obj 87 84 spigot 0;
#X obj 87 57 delay 40;
#X msg 456 192 /ROBOT_5/BUY_UP \$1;
#X msg 458 278 /ROBOT_5/HOLD_UP \$1;
#X msg 691 222 /ROBOT_5/BUY_DOWN \$1;
#X msg 698 308 /ROBOT_5/HOLD_DOWN \$1;
#X msg 461 354 /ROBOT_5/SELL_UP \$1;
#X msg 696 389 /ROBOT_5/SELL_DOWN \$1;
#X msg 466 452 /ROBOT_5/CONF \$1;
#X connect 5 0 22 0;
#X connect 6 0 24 0;
#X connect 9 0 26 0;
#X connect 10 0 28 0;
#X connect 13 0 30 0;
#X connect 14 0 32 0;
#X connect 17 0 52 0;
#X connect 19 0 53 0;
#X connect 20 0 34 0;
#X connect 22 0 80 0;
#X connect 22 0 7 0;
#X connect 24 0 82 0;
#X connect 24 0 8 0;
#X connect 26 0 81 0;
#X connect 26 0 11 0;
#X connect 28 0 83 0;
#X connect 28 0 12 0;
#X connect 30 0 84 0;
#X connect 30 0 15 0;
#X connect 32 0 85 0;
#X connect 32 0 16 0;
#X connect 34 0 86 0;
#X connect 34 0 2 0;
#X connect 42 0 61 0;
#X connect 43 0 42 0;
#X connect 45 0 42 0;
#X connect 46 0 47 0;
#X connect 47 0 75 0;
#X connect 49 0 78 1;
#X connect 54 0 5 0;
#X connect 55 0 6 0;
#X connect 56 0 9 0;
#X connect 57 0 10 0;
#X connect 58 0 13 0;
#X connect 59 0 14 0;
#X connect 60 0 20 0;
#X connect 62 0 63 0;
#X connect 62 0 69 0;
#X connect 62 0 70 0;
#X connect 62 0 71 0;
#X connect 64 0 72 0;
#X connect 64 0 73 0;
#X connect 64 0 74 0;
#X connect 65 0 76 0;
#X connect 66 0 76 1;
#X connect 67 0 76 2;
#X connect 68 0 46 1;
#X connect 76 0 63 0;
#X connect 76 1 69 0;
#X connect 76 2 72 0;
#X connect 76 3 70 0;
#X connect 76 4 73 0;
#X connect 76 5 71 0;
#X connect 76 6 74 0;
#X connect 76 7 46 0;
#X connect 77 0 79 0;
#X connect 78 0 51 0;
#X connect 79 0 78 0;
#X connect 80 0 23 0;
#X connect 81 0 27 0;
#X connect 82 0 25 0;
#X connect 83 0 29 0;
#X connect 84 0 31 0;
#X connect 85 0 33 0;
#X connect 86 0 35 0;
#X coords 0 -1 1 1 220 380 1 200 100;
#X restore 1112 1 pd robot_5;
#N canvas 524 26 450 300 start_pulse 0;
#X obj 101 101 cnv 15 200 40 empty empty G0_START 40 20 0 14 -203904
-1 0;
#X obj 108 107 tgl 25 0 empty empty empty 17 7 0 10 -257985 -1 -1 0
1;
#X obj 40 180 metro 1000;
#X obj 42 247 s pulse;
#X obj 43 210 bng 15 250 50 0 empty empty empty 17 7 0 10 -262144 -1
-1;
#X floatatom 212 115 6 100 7000 2 - INIT_TRADER_RATE -, f 6;
#X text 248 103 rate (ms);
#X text 250 114 min 100;
#X text 250 126 max 7000;
#X connect 1 0 2 0;
#X connect 2 0 4 0;
#X connect 4 0 3 0;
#X connect 5 0 2 1;
#X coords 0 -1 1 1 200 40 2 100 100;
#X restore 5 51 pd start_pulse;
#N canvas 0 22 901 565 robot_7 0;
#X obj 200 431 cnv 15 220 50 empty empty empty 40 21 0 14 -258113 -1
0;
#X text 234 129 open file;
#X floatatom 371 458 5 0 0 0 - - -, f 5;
#X obj 200 101 cnv 15 220 100 empty empty empty 40 21 0 14 -249661
-1 0;
#X obj 200 199 cnv 15 220 230 empty empty empty 40 21 0 14 -204736
-1 0;
#X obj 224 226 hsl 140 15 0 255 0 0 nos nor empty -2 -8 0 10 -262144
-1 -1 0 0;
#X obj 224 262 hsl 140 15 0 255 0 0 nos nor empty -2 -8 0 10 -262144
-1 -1 0 0;
#X floatatom 373 229 5 0 0 0 - - -, f 5;
#X floatatom 374 264 5 0 0 0 - - -, f 5;
#X obj 224 299 hsl 140 15 0 255 0 0 nos nor empty -2 -8 0 10 -262144
-1 -1 0 0;
#X obj 224 334 hsl 140 15 0 255 0 0 nos nor empty -2 -8 0 10 -262144
-1 -1 0 0;
#X floatatom 374 301 5 0 0 0 - - -, f 5;
#X floatatom 374 334 5 0 0 0 - - -, f 5;
#X obj 223 369 hsl 140 15 0 255 0 0 nos nor empty -2 -8 0 10 -262144
-1 -1 0 0;
#X obj 222 404 hsl 140 15 0 255 0 0 nos nor empty -2 -8 0 10 -262144
-1 -1 0 0;
#X floatatom 372 372 5 0 0 0 - - -, f 5;
#X floatatom 373 405 5 0 0 0 - - -, f 5;
#X obj 213 129 bng 15 250 50 0 nos nor empty 0 -10 0 10 -262144 -1
-1;
#X text 234 129 open file;
#X obj 213 151 tgl 15 0 nos nor loop 20 7 0 10 -262144 -1 -1 0 1;
#X obj 220 455 hsl 140 15 0 255 0 0 nos nor empty -2 -8 0 10 -262144
-1 -1 0 0;
#X text 217 438 Confidence;
#X obj 456 168 i;
#X obj 456 214 s SEND_OSC;
#X obj 691 198 i;
#X obj 691 244 s SEND_OSC;
#X obj 458 254 i;
#X obj 458 300 s SEND_OSC;
#X obj 698 284 i;
#X obj 698 330 s SEND_OSC;
#X obj 461 330 i;
#X obj 461 376 s SEND_OSC;
#X obj 696 365 i;
#X obj 696 411 s SEND_OSC;
#X obj 466 428 i;
#X obj 466 474 s SEND_OSC;
#X text 222 209 Buy Increase;
#X text 221 245 Buy Decrease;
#X text 221 284 Hold Increase;
#X text 221 320 Hold Decrease;
#X text 222 354 Sell Increase;
#X text 220 389 Sell Decrease;
#X msg 390 49 0;
#X obj 381 116 bng 15 250 50 0 empty empty Reset -5 -5 0 10 -258113
-1 -1;
#X text 547 34 !!! TRADEBOT + Acronyme Action !!!;
#X obj 388 21 r reset_all;
#X obj 782 82 spigot 0;
#X msg 784 111 0;
#X text 675 69 !!! when EOF hit a bang so reset !!!;
#X obj 213 106 tgl 15 0 nos nor empty 17 7 0 10 -257985 -1 -1 0 1;
#X obj 546 50 tradebot FB, f 35;
#X obj 86 26 r pulse;
#X obj 87 84 spigot 0;
#X text 244 106 : ROBOT 7 - FACEBOOK;
#X obj 89 117 s start_7;
#X obj 90 140 s open_7;
#X obj 90 164 s loop_7;
#X obj 93 209 r in_buy_inc_7;
#X obj 93 246 r in_buy_dec_7;
#X obj 91 281 r in_hold_inc_7;
#X obj 91 314 r in_hold_dec_7;
#X obj 92 352 r in_sell_inc_7;
#X obj 90 386 r in_sell_dec_7;
#X obj 93 425 r conf_7;
#X obj 399 76 s reset_7;
#X obj 467 61 r reset_7;
#X obj 546 13 r open_7;
#X obj 634 12 r start_7;
#X obj 722 10 r reset_7;
#X obj 803 48 r loop_7;
#X obj 445 100 s conf_7;
#X obj 527 101 s in_hold_dec_7;
#X obj 611 100 s in_sell_dec_7;
#X obj 692 100 s in_buy_dec_7;
#X obj 467 124 r reset_7;
#X obj 543 142 s in_hold_inc_7;
#X obj 625 141 s in_sell_inc_7;
#X obj 707 141 s in_buy_inc_7;
#X obj 791 140 s reset_7;
#X msg 456 192 /ROBOT_7/BUY_UP \$1;
#X msg 458 278 /ROBOT_7/HOLD_UP \$1;
#X msg 691 222 /ROBOT_7/BUY_DOWN \$1;
#X msg 698 308 /ROBOT_7/HOLD_DOWN \$1;
#X msg 461 354 /ROBOT_7/SELL_UP \$1;
#X msg 696 389 /ROBOT_7/SELL_DOWN \$1;
#X msg 466 452 /ROBOT_7/CONF \$1;
#X obj 87 57 delay 60;
#X connect 5 0 22 0;
#X connect 6 0 24 0;
#X connect 9 0 26 0;
#X connect 10 0 28 0;
#X connect 13 0 30 0;
#X connect 14 0 32 0;
#X connect 17 0 55 0;
#X connect 19 0 56 0;
#X connect 20 0 34 0;
#X connect 22 0 79 0;
#X connect 22 0 7 0;
#X connect 24 0 81 0;
#X connect 24 0 8 0;
#X connect 26 0 80 0;
#X connect 26 0 11 0;
#X connect 28 0 82 0;
#X connect 28 0 12 0;
#X connect 30 0 83 0;
#X connect 30 0 15 0;
#X connect 32 0 84 0;
#X connect 32 0 16 0;
#X connect 34 0 85 0;
#X connect 34 0 2 0;
#X connect 42 0 64 0;
#X connect 43 0 42 0;
#X connect 45 0 42 0;
#X connect 46 0 47 0;
#X connect 47 0 78 0;
#X connect 49 0 52 1;
#X connect 50 0 70 0;
#X connect 50 1 71 0;
#X connect 50 2 75 0;
#X connect 50 3 72 0;
#X connect 50 4 76 0;
#X connect 50 5 73 0;
#X connect 50 6 77 0;
#X connect 50 7 46 0;
#X connect 51 0 86 0;
#X connect 52 0 54 0;
#X connect 57 0 5 0;
#X connect 58 0 6 0;
#X connect 59 0 9 0;
#X connect 60 0 10 0;
#X connect 61 0 13 0;
#X connect 62 0 14 0;
#X connect 63 0 20 0;
#X connect 65 0 70 0;
#X connect 65 0 71 0;
#X connect 65 0 72 0;
#X connect 65 0 73 0;
#X connect 66 0 50 0;
#X connect 67 0 50 1;
#X connect 68 0 50 2;
#X connect 69 0 46 1;
#X connect 74 0 75 0;
#X connect 74 0 76 0;
#X connect 74 0 77 0;
#X connect 79 0 23 0;
#X connect 80 0 27 0;
#X connect 81 0 25 0;
#X connect 82 0 29 0;
#X connect 83 0 31 0;
#X connect 84 0 33 0;
#X connect 85 0 35 0;
#X connect 86 0 52 0;
#X coords 0 -1 1 1 220 380 1 200 100;
#X restore 447 385 pd robot_7;
#N canvas 0 23 1064 707 robot_8 0;
#X obj 200 431 cnv 15 220 50 empty empty empty 40 21 0 14 -258113 -1
0;
#X text 234 129 open file;
#X floatatom 371 458 5 0 0 0 - - -, f 5;
#X obj 200 101 cnv 15 220 100 empty empty empty 40 21 0 14 -249661
-1 0;
#X obj 200 199 cnv 15 220 230 empty empty empty 40 21 0 14 -204736
-1 0;
#X obj 224 226 hsl 140 15 0 255 0 0 nos nor empty -2 -8 0 10 -262144
-1 -1 0 0;
#X obj 224 262 hsl 140 15 0 255 0 0 nos nor empty -2 -8 0 10 -262144
-1 -1 0 0;
#X floatatom 373 229 5 0 0 0 - - -, f 5;
#X floatatom 374 264 5 0 0 0 - - -, f 5;
#X obj 224 299 hsl 140 15 0 255 0 0 nos nor empty -2 -8 0 10 -262144
-1 -1 0 0;
#X obj 224 334 hsl 140 15 0 255 0 0 nos nor empty -2 -8 0 10 -262144
-1 -1 0 0;
#X floatatom 374 301 5 0 0 0 - - -, f 5;
#X floatatom 374 334 5 0 0 0 - - -, f 5;
#X obj 223 369 hsl 140 15 0 255 0 0 nos nor empty -2 -8 0 10 -262144
-1 -1 0 0;
#X obj 222 404 hsl 140 15 0 255 0 0 nos nor empty -2 -8 0 10 -262144
-1 -1 0 0;
#X floatatom 372 372 5 0 0 0 - - -, f 5;
#X floatatom 373 405 5 0 0 0 - - -, f 5;
#X obj 213 129 bng 15 250 50 0 nos nor empty 0 -10 0 10 -262144 -1
-1;
#X text 234 129 open file;
#X obj 213 151 tgl 15 0 nos nor loop 20 7 0 10 -262144 -1 -1 0 1;
#X obj 220 455 hsl 140 15 0 255 0 0 nos nor empty -2 -8 0 10 -262144
-1 -1 0 0;
#X text 217 438 Confidence;
#X obj 456 168 i;
#X obj 456 214 s SEND_OSC;
#X obj 691 198 i;
#X obj 691 244 s SEND_OSC;
#X obj 458 254 i;
#X obj 458 300 s SEND_OSC;
#X obj 698 284 i;
#X obj 698 330 s SEND_OSC;
#X obj 461 330 i;
#X obj 461 376 s SEND_OSC;
#X obj 696 365 i;
#X obj 696 411 s SEND_OSC;
#X obj 466 428 i;
#X obj 466 474 s SEND_OSC;
#X text 222 209 Buy Increase;
#X text 221 245 Buy Decrease;
#X text 221 284 Hold Increase;
#X text 221 320 Hold Decrease;
#X text 222 354 Sell Increase;
#X text 220 389 Sell Decrease;
#X msg 390 49 0;
#X obj 381 116 bng 15 250 50 0 empty empty Reset -5 -5 0 10 -258113
-1 -1;
#X text 547 34 !!! TRADEBOT + Acronyme Action !!!;
#X obj 388 21 r reset_all;
#X obj 782 82 spigot 0;
#X msg 784 111 0;
#X text 675 69 !!! when EOF hit a bang so reset !!!;
#X obj 213 106 tgl 15 0 nos nor empty 17 7 0 10 -257985 -1 -1 0 1;
#X obj 546 50 tradebot FB, f 35;
#X obj 86 26 r pulse;
#X obj 87 84 spigot 0;
#X text 244 106 : ROBOT 8 - FACEBOOK;
#X obj 87 57 delay 70;
#X obj 89 117 s start_8;
#X obj 90 140 s open_8;
#X obj 90 164 s loop_8;
#X obj 93 209 r in_buy_inc_8;
#X obj 93 246 r in_buy_dec_8;
#X obj 91 281 r in_hold_inc_8;
#X obj 91 314 r in_hold_dec_8;
#X obj 92 352 r in_sell_inc_8;
#X obj 90 386 r in_sell_dec_8;
#X obj 93 425 r conf_8;
#X obj 399 76 s reset_8;
#X obj 467 61 r reset_8;
#X obj 546 13 r open_8;
#X obj 634 12 r start_8;
#X obj 722 10 r reset_8;
#X obj 803 48 r loop_8;
#X obj 445 100 s conf_8;
#X obj 467 124 r reset_8;
#X obj 527 101 s in_hold_dec_8;
#X obj 611 100 s in_sell_dec_8;
#X obj 692 100 s in_buy_dec_8;
#X obj 543 142 s in_hold_inc_8;
#X obj 625 141 s in_sell_inc_8;
#X obj 707 141 s in_buy_inc_8;
#X obj 791 140 s reset_8;
#X msg 456 192 /ROBOT_8/BUY_UP \$1;
#X msg 458 278 /ROBOT_8/HOLD_UP \$1;
#X msg 691 222 /ROBOT_8/BUY_DOWN \$1;
#X msg 698 308 /ROBOT_8/HOLD_DOWN \$1;
#X msg 461 354 /ROBOT_8/SELL_UP \$1;
#X msg 696 389 /ROBOT_8/SELL_DOWN \$1;
#X msg 466 452 /ROBOT_8/CONF \$1;
#X connect 5 0 22 0;
#X connect 6 0 24 0;
#X connect 9 0 26 0;
#X connect 10 0 28 0;
#X connect 13 0 30 0;
#X connect 14 0 32 0;
#X connect 17 0 56 0;
#X connect 19 0 57 0;
#X connect 20 0 34 0;
#X connect 22 0 80 0;
#X connect 22 0 7 0;
#X connect 24 0 82 0;
#X connect 24 0 8 0;
#X connect 26 0 81 0;
#X connect 26 0 11 0;
#X connect 28 0 83 0;
#X connect 28 0 12 0;
#X connect 30 0 84 0;
#X connect 30 0 15 0;
#X connect 32 0 85 0;
#X connect 32 0 16 0;
#X connect 34 0 86 0;
#X connect 34 0 2 0;
#X connect 42 0 65 0;
#X connect 43 0 42 0;
#X connect 45 0 42 0;
#X connect 46 0 47 0;
#X connect 47 0 79 0;
#X connect 49 0 52 1;
#X connect 50 0 71 0;
#X connect 50 1 73 0;
#X connect 50 2 76 0;
#X connect 50 3 74 0;
#X connect 50 4 77 0;
#X connect 50 5 75 0;
#X connect 50 6 78 0;
#X connect 50 7 46 0;
#X connect 51 0 54 0;
#X connect 52 0 55 0;
#X connect 54 0 52 0;
#X connect 58 0 5 0;
#X connect 59 0 6 0;
#X connect 60 0 9 0;
#X connect 61 0 10 0;
#X connect 62 0 13 0;
#X connect 63 0 14 0;
#X connect 64 0 20 0;
#X connect 66 0 71 0;
#X connect 66 0 73 0;
#X connect 66 0 74 0;
#X connect 66 0 75 0;
#X connect 67 0 50 0;
#X connect 68 0 50 1;
#X connect 69 0 50 2;
#X connect 70 0 46 1;
#X connect 72 0 76 0;
#X connect 72 0 77 0;
#X connect 72 0 78 0;
#X connect 80 0 23 0;
#X connect 81 0 27 0;
#X connect 82 0 25 0;
#X connect 83 0 29 0;
#X connect 84 0 31 0;
#X connect 85 0 33 0;
#X connect 86 0 35 0;
#X coords 0 -1 1 1 220 380 1 200 100;
#X restore 669 384 pd robot_8;
#N canvas 0 22 1029 647 robot_9 0;
#X obj 200 431 cnv 15 220 50 empty empty empty 40 21 0 14 -258113 -1
0;
#X text 234 129 open file;
#X floatatom 371 458 5 0 0 0 - - -, f 5;
#X obj 200 101 cnv 15 220 100 empty empty empty 40 21 0 14 -249661
-1 0;
#X obj 200 199 cnv 15 220 230 empty empty empty 40 21 0 14 -204736
-1 0;
#X obj 224 226 hsl 140 15 0 255 0 0 nos nor empty -2 -8 0 10 -262144
-1 -1 0 0;
#X obj 224 262 hsl 140 15 0 255 0 0 nos nor empty -2 -8 0 10 -262144
-1 -1 0 0;
#X floatatom 373 229 5 0 0 0 - - -, f 5;
#X floatatom 374 264 5 0 0 0 - - -, f 5;
#X obj 224 299 hsl 140 15 0 255 0 0 nos nor empty -2 -8 0 10 -262144
-1 -1 0 0;
#X obj 224 334 hsl 140 15 0 255 0 0 nos nor empty -2 -8 0 10 -262144
-1 -1 0 0;
#X floatatom 374 301 5 0 0 0 - - -, f 5;
#X floatatom 374 334 5 0 0 0 - - -, f 5;
#X obj 223 369 hsl 140 15 0 255 0 0 nos nor empty -2 -8 0 10 -262144
-1 -1 0 0;
#X obj 222 404 hsl 140 15 0 255 0 0 nos nor empty -2 -8 0 10 -262144
-1 -1 0 0;
#X floatatom 372 372 5 0 0 0 - - -, f 5;
#X floatatom 373 405 5 0 0 0 - - -, f 5;
#X obj 213 129 bng 15 250 50 0 nos nor empty 0 -10 0 10 -262144 -1
-1;
#X text 234 129 open file;
#X obj 213 151 tgl 15 0 nos nor loop 20 7 0 10 -262144 -1 -1 0 1;
#X obj 220 455 hsl 140 15 0 255 0 0 nos nor empty -2 -8 0 10 -262144
-1 -1 13900 0;
#X text 217 438 Confidence;
#X obj 456 168 i;
#X obj 456 214 s SEND_OSC;
#X obj 691 198 i;
#X obj 691 244 s SEND_OSC;
#X obj 458 254 i;
#X obj 458 300 s SEND_OSC;
#X obj 698 284 i;
#X obj 698 330 s SEND_OSC;
#X obj 461 330 i;
#X obj 461 376 s SEND_OSC;
#X obj 696 365 i;
#X obj 696 411 s SEND_OSC;
#X obj 466 428 i;
#X obj 466 474 s SEND_OSC;
#X text 222 209 Buy Increase;
#X text 221 245 Buy Decrease;
#X text 221 284 Hold Increase;
#X text 221 320 Hold Decrease;
#X text 222 354 Sell Increase;
#X text 220 389 Sell Decrease;
#X msg 390 49 0;
#X obj 381 116 bng 15 250 50 0 empty empty Reset -5 -5 0 10 -258113
-1 -1;
#X text 547 34 !!! TRADEBOT + Acronyme Action !!!;
#X obj 388 21 r reset_all;
#X obj 782 82 spigot 0;
#X msg 784 111 0;
#X text 675 69 !!! when EOF hit a bang so reset !!!;
#X obj 213 106 tgl 15 0 nos nor empty 17 7 0 10 -257985 -1 -1 0 1;
#X obj 546 50 tradebot FB, f 35;
#X obj 86 26 r pulse;
#X obj 87 84 spigot 0;
#X obj 87 57 delay 80;
#X text 244 106 : ROBOT 9 - FACEBOOK;
#X obj 89 117 s start_9;
#X obj 90 140 s open_9;
#X obj 90 164 s loop_9;
#X obj 93 209 r in_buy_inc_9;
#X obj 93 246 r in_buy_dec_9;
#X obj 91 281 r in_hold_inc_9;
#X obj 91 314 r in_hold_dec_9;
#X obj 92 352 r in_sell_inc_9;
#X obj 90 386 r in_sell_dec_9;
#X obj 93 425 r conf_9;
#X obj 399 76 s reset_9;
#X obj 467 61 r reset_9;
#X obj 546 13 r open_9;
#X obj 634 12 r start_9;
#X obj 722 10 r reset_9;
#X obj 803 48 r loop_9;
#X obj 445 100 s conf_9;
#X obj 467 124 r reset_9;
#X obj 527 101 s in_hold_dec_9;
#X obj 611 100 s in_sell_dec_9;
#X obj 692 100 s in_buy_dec_9;
#X obj 543 142 s in_hold_inc_9;
#X obj 625 141 s in_sell_inc_9;
#X obj 707 141 s in_buy_inc_9;
#X obj 791 140 s reset_9;
#X msg 456 192 /ROBOT_9/BUY_UP \$1;
#X msg 458 278 /ROBOT_9/HOLD_UP \$1;
#X msg 691 222 /ROBOT_9/BUY_DOWN \$1;
#X msg 698 308 /ROBOT_9/HOLD_DOWN \$1;
#X msg 461 354 /ROBOT_9/SELL_UP \$1;
#X msg 696 389 /ROBOT_9/SELL_DOWN \$1;
#X msg 466 452 /ROBOT_9/CONF \$1;
#X connect 5 0 22 0;
#X connect 6 0 24 0;
#X connect 9 0 26 0;
#X connect 10 0 28 0;
#X connect 13 0 30 0;
#X connect 14 0 32 0;
#X connect 17 0 56 0;
#X connect 19 0 57 0;
#X connect 20 0 34 0;
#X connect 22 0 80 0;
#X connect 22 0 7 0;
#X connect 24 0 82 0;
#X connect 24 0 8 0;
#X connect 26 0 81 0;
#X connect 26 0 11 0;
#X connect 28 0 83 0;
#X connect 28 0 12 0;
#X connect 30 0 84 0;
#X connect 30 0 15 0;
#X connect 32 0 85 0;
#X connect 32 0 16 0;
#X connect 34 0 86 0;
#X connect 34 0 2 0;
#X connect 42 0 65 0;
#X connect 43 0 42 0;
#X connect 45 0 42 0;
#X connect 46 0 47 0;
#X connect 47 0 79 0;
#X connect 49 0 52 1;
#X connect 50 0 71 0;
#X connect 50 1 73 0;
#X connect 50 2 76 0;
#X connect 50 3 74 0;
#X connect 50 4 77 0;
#X connect 50 5 75 0;
#X connect 50 6 78 0;
#X connect 50 7 46 0;
#X connect 51 0 53 0;
#X connect 52 0 55 0;
#X connect 53 0 52 0;
#X connect 58 0 5 0;
#X connect 59 0 6 0;
#X connect 60 0 9 0;
#X connect 61 0 10 0;
#X connect 62 0 13 0;
#X connect 63 0 14 0;
#X connect 64 0 20 0;
#X connect 66 0 71 0;
#X connect 66 0 73 0;
#X connect 66 0 74 0;
#X connect 66 0 75 0;
#X connect 67 0 50 0;
#X connect 68 0 50 1;
#X connect 69 0 50 2;
#X connect 70 0 46 1;
#X connect 72 0 76 0;
#X connect 72 0 77 0;
#X connect 72 0 78 0;
#X connect 80 0 23 0;
#X connect 81 0 27 0;
#X connect 82 0 25 0;
#X connect 83 0 29 0;
#X connect 84 0 31 0;
#X connect 85 0 33 0;
#X connect 86 0 35 0;
#X coords 0 -1 1 1 220 380 1 200 100;
#X restore 891 384 pd robot_9;
#N canvas 0 22 868 596 robot_6 0;
#X obj 200 431 cnv 15 220 50 empty empty empty 40 21 0 14 -258113 -1
0;
#X text 234 129 open file;
#X floatatom 371 458 5 0 0 0 - - -, f 5;
#X obj 200 101 cnv 15 220 100 empty empty empty 40 21 0 14 -249661
-1 0;
#X obj 200 199 cnv 15 220 230 empty empty empty 40 21 0 14 -204736
-1 0;
#X obj 224 226 hsl 140 15 0 255 0 0 nos nor empty -2 -8 0 10 -262144
-1 -1 0 0;
#X obj 224 262 hsl 140 15 0 255 0 0 nos nor empty -2 -8 0 10 -262144
-1 -1 0 0;
#X floatatom 373 229 5 0 0 0 - - -, f 5;
#X floatatom 374 264 5 0 0 0 - - -, f 5;
#X obj 224 299 hsl 140 15 0 255 0 0 nos nor empty -2 -8 0 10 -262144
-1 -1 0 0;
#X obj 224 334 hsl 140 15 0 255 0 0 nos nor empty -2 -8 0 10 -262144
-1 -1 0 0;
#X floatatom 374 301 5 0 0 0 - - -, f 5;
#X floatatom 374 334 5 0 0 0 - - -, f 5;
#X obj 223 369 hsl 140 15 0 255 0 0 nos nor empty -2 -8 0 10 -262144
-1 -1 0 0;
#X obj 222 404 hsl 140 15 0 255 0 0 nos nor empty -2 -8 0 10 -262144
-1 -1 0 0;
#X floatatom 372 372 5 0 0 0 - - -, f 5;
#X floatatom 373 405 5 0 0 0 - - -, f 5;
#X obj 213 129 bng 15 250 50 0 nos nor empty 0 -10 0 10 -262144 -1
-1;
#X text 234 129 open file;
#X obj 213 151 tgl 15 0 nos nor loop 20 7 0 10 -262144 -1 -1 0 1;
#X obj 220 455 hsl 140 15 0 255 0 0 nos nor empty -2 -8 0 10 -262144
-1 -1 0 0;
#X text 217 438 Confidence;
#X obj 456 168 i;
#X obj 456 214 s SEND_OSC;
#X obj 691 198 i;
#X obj 691 244 s SEND_OSC;
#X obj 458 254 i;
#X obj 458 300 s SEND_OSC;
#X obj 698 284 i;
#X obj 698 330 s SEND_OSC;
#X obj 461 330 i;
#X obj 461 376 s SEND_OSC;
#X obj 696 365 i;
#X obj 696 411 s SEND_OSC;
#X obj 466 428 i;
#X obj 466 474 s SEND_OSC;
#X text 222 209 Buy Increase;
#X text 221 245 Buy Decrease;
#X text 221 284 Hold Increase;
#X text 221 320 Hold Decrease;
#X text 222 354 Sell Increase;
#X text 220 389 Sell Decrease;
#X msg 390 49 0;
#X obj 381 116 bng 15 250 50 0 empty empty Reset -5 -5 0 10 -258113
-1 -1;
#X text 547 34 !!! TRADEBOT + Acronyme Action !!!;
#X obj 388 21 r reset_all;
#X obj 782 82 spigot 0;
#X msg 784 111 0;
#X text 675 69 !!! when EOF hit a bang so reset !!!;
#X obj 213 106 tgl 15 0 nos nor empty 17 7 0 10 -257985 -1 -1 0 1;
#X obj 546 50 tradebot FB, f 35;
#X obj 86 26 r pulse;
#X obj 87 84 spigot 0;
#X text 244 106 : ROBOT 6 - FACEBOOK;
#X obj 87 57 delay 50;
#X obj 89 117 s start_6;
#X obj 90 140 s open_6;
#X obj 90 164 s loop_6;
#X obj 93 209 r in_buy_inc_6;
#X obj 93 246 r in_buy_dec_6;
#X obj 91 281 r in_hold_inc_6;
#X obj 91 314 r in_hold_dec_6;
#X obj 92 352 r in_sell_inc_6;
#X obj 90 386 r in_sell_dec_6;
#X obj 93 425 r conf_6;
#X obj 399 76 s reset_6;
#X obj 467 61 r reset_6;
#X obj 546 13 r open_6;
#X obj 634 12 r start_6;
#X obj 722 10 r reset_6;
#X obj 803 48 r loop_6;
#X obj 445 100 s conf_6;
#X obj 527 101 s in_hold_dec_6;
#X obj 611 100 s in_sell_dec_6;
#X obj 692 100 s in_buy_dec_6;
#X obj 467 124 r reset_6;
#X obj 543 142 s in_hold_inc_6;
#X obj 625 141 s in_sell_inc_6;
#X obj 707 141 s in_buy_inc_6;
#X obj 791 140 s reset_6;
#X msg 456 192 /ROBOT_6/BUY_UP \$1;
#X msg 691 222 /ROBOT_6/BUY_DOWN \$1;
#X msg 458 278 /ROBOT_6/HOLD_UP \$1;
#X msg 698 308 /ROBOT_6/HOLD_DOWN \$1;
#X msg 466 452 /ROBOT_6/CONF \$1;
#X msg 696 389 /ROBOT_6/SELL_DOWN \$1;
#X msg 461 354 /ROBOT_6/SELL_UP \$1;
#X connect 5 0 22 0;
#X connect 6 0 24 0;
#X connect 9 0 26 0;
#X connect 10 0 28 0;
#X connect 13 0 30 0;
#X connect 14 0 32 0;
#X connect 17 0 56 0;
#X connect 19 0 57 0;
#X connect 20 0 34 0;
#X connect 22 0 80 0;
#X connect 22 0 7 0;
#X connect 24 0 81 0;
#X connect 24 0 8 0;
#X connect 26 0 82 0;
#X connect 26 0 11 0;
#X connect 28 0 83 0;
#X connect 28 0 12 0;
#X connect 30 0 86 0;
#X connect 30 0 15 0;
#X connect 32 0 85 0;
#X connect 32 0 16 0;
#X connect 34 0 84 0;
#X connect 34 0 2 0;
#X connect 42 0 65 0;
#X connect 43 0 42 0;
#X connect 45 0 42 0;
#X connect 46 0 47 0;
#X connect 47 0 79 0;
#X connect 49 0 52 1;
#X connect 50 0 71 0;
#X connect 50 1 72 0;
#X connect 50 2 76 0;
#X connect 50 3 73 0;
#X connect 50 4 77 0;
#X connect 50 5 74 0;
#X connect 50 6 78 0;
#X connect 50 7 46 0;
#X connect 51 0 54 0;
#X connect 52 0 55 0;
#X connect 54 0 52 0;
#X connect 58 0 5 0;
#X connect 59 0 6 0;
#X connect 60 0 9 0;
#X connect 61 0 10 0;
#X connect 62 0 13 0;
#X connect 63 0 14 0;
#X connect 64 0 20 0;
#X connect 66 0 71 0;
#X connect 66 0 72 0;
#X connect 66 0 73 0;
#X connect 66 0 74 0;
#X connect 67 0 50 0;
#X connect 68 0 50 1;
#X connect 69 0 50 2;
#X connect 70 0 46 1;
#X connect 75 0 76 0;
#X connect 75 0 77 0;
#X connect 75 0 78 0;
#X connect 80 0 23 0;
#X connect 81 0 25 0;
#X connect 82 0 27 0;
#X connect 83 0 29 0;
#X connect 84 0 35 0;
#X connect 85 0 33 0;
#X connect 86 0 31 0;
#X coords 0 -1 1 1 220 380 1 200 100;
#X restore 225 385 pd robot_6;
#N canvas 0 22 1039 652 robot_10 0;
#X obj 200 431 cnv 15 220 50 empty empty empty 40 21 0 14 -258113 -1
0;
#X text 234 129 open file;
#X floatatom 371 458 5 0 0 0 - - -, f 5;
#X obj 200 101 cnv 15 220 100 empty empty empty 40 21 0 14 -249661
-1 0;
#X obj 200 199 cnv 15 220 230 empty empty empty 40 21 0 14 -204736
-1 0;
#X obj 224 226 hsl 140 15 0 255 0 0 nos nor empty -2 -8 0 10 -262144
-1 -1 0 0;
#X obj 224 262 hsl 140 15 0 255 0 0 nos nor empty -2 -8 0 10 -262144
-1 -1 0 0;
#X floatatom 373 229 5 0 0 0 - - -, f 5;
#X floatatom 374 264 5 0 0 0 - - -, f 5;
#X obj 224 299 hsl 140 15 0 255 0 0 nos nor empty -2 -8 0 10 -262144
-1 -1 0 0;
#X obj 224 334 hsl 140 15 0 255 0 0 nos nor empty -2 -8 0 10 -262144
-1 -1 0 0;
#X floatatom 374 301 5 0 0 0 - - -, f 5;
#X floatatom 374 334 5 0 0 0 - - -, f 5;
#X obj 223 369 hsl 140 15 0 255 0 0 nos nor empty -2 -8 0 10 -262144
-1 -1 0 0;
#X obj 222 404 hsl 140 15 0 255 0 0 nos nor empty -2 -8 0 10 -262144
-1 -1 0 0;
#X floatatom 372 372 5 0 0 0 - - -, f 5;
#X floatatom 373 405 5 0 0 0 - - -, f 5;
#X obj 213 129 bng 15 250 50 0 nos nor empty 0 -10 0 10 -262144 -1
-1;
#X text 234 129 open file;
#X obj 213 151 tgl 15 0 nos nor loop 20 7 0 10 -262144 -1 -1 0 1;
#X obj 220 455 hsl 140 15 0 255 0 0 nos nor empty -2 -8 0 10 -262144
-1 -1 0 0;
#X text 217 438 Confidence;
#X obj 456 168 i;
#X obj 456 214 s SEND_OSC;
#X obj 691 198 i;
#X obj 691 244 s SEND_OSC;
#X obj 458 254 i;
#X obj 458 300 s SEND_OSC;
#X obj 698 284 i;
#X obj 698 330 s SEND_OSC;
#X obj 461 330 i;
#X obj 461 376 s SEND_OSC;
#X obj 696 365 i;
#X obj 696 411 s SEND_OSC;
#X obj 466 428 i;
#X obj 466 474 s SEND_OSC;
#X text 222 209 Buy Increase;
#X text 221 245 Buy Decrease;
#X text 221 284 Hold Increase;
#X text 221 320 Hold Decrease;
#X text 222 354 Sell Increase;
#X text 220 389 Sell Decrease;
#X msg 390 49 0;
#X obj 381 116 bng 15 250 50 0 empty empty Reset -5 -5 0 10 -258113
-1 -1;
#X text 547 34 !!! TRADEBOT + Acronyme Action !!!;
#X obj 388 21 r reset_all;
#X obj 782 82 spigot 0;
#X msg 784 111 0;
#X text 675 69 !!! when EOF hit a bang so reset !!!;
#X obj 213 106 tgl 15 0 nos nor empty 17 7 0 10 -257985 -1 -1 0 1;
#X obj 546 50 tradebot FB, f 35;
#X obj 86 26 r pulse;
#X obj 87 84 spigot 0;
#X text 244 106 : ROBOT 10 - FACEBOOK;
#X obj 87 57 delay 90;
#X obj 89 117 s start_A;
#X obj 90 140 s open_A;
#X obj 90 164 s loop_A;
#X obj 93 209 r in_buy_inc_A;
#X obj 93 246 r in_buy_dec_A;
#X obj 91 281 r in_hold_inc_A;
#X obj 91 314 r in_hold_dec_A;
#X obj 92 352 r in_sell_inc_A;
#X obj 90 386 r in_sell_dec_A;
#X obj 93 425 r conf_A;
#X obj 399 76 s reset_A;
#X obj 546 13 r open_A;
#X obj 634 12 r start_A;
#X obj 722 10 r reset_A;
#X obj 467 61 r reset_A;
#X obj 445 100 s conf_A;
#X obj 527 101 s in_hold_dec_A;
#X obj 611 100 s in_sell_dec_A;
#X obj 692 100 s in_buy_dec_A;
#X obj 803 48 r loop_A;
#X obj 791 140 s reset_A;
#X obj 543 142 s in_hold_inc_A;
#X obj 625 141 s in_sell_inc_A;
#X obj 707 141 s in_buy_inc_A;
#X obj 467 124 r reset_A;
#X msg 456 192 /ROBOT_10/BUY_UP \$1;
#X msg 458 278 /ROBOT_10/HOLD_UP \$1;
#X msg 461 354 /ROBOT_10/SELL_UP \$1;
#X msg 691 222 /ROBOT_10/BUY_DOWN \$1;
#X msg 698 308 /ROBOT_10/HOLD_DOWN \$1;
#X msg 696 389 /ROBOT_10/SELL_DOWN \$1;
#X msg 466 452 /ROBOT_10/CONF \$1;
#X connect 5 0 22 0;
#X connect 6 0 24 0;
#X connect 9 0 26 0;
#X connect 10 0 28 0;
#X connect 13 0 30 0;
#X connect 14 0 32 0;
#X connect 17 0 56 0;
#X connect 19 0 57 0;
#X connect 20 0 34 0;
#X connect 22 0 80 0;
#X connect 22 0 7 0;
#X connect 24 0 83 0;
#X connect 24 0 8 0;
#X connect 26 0 81 0;
#X connect 26 0 11 0;
#X connect 28 0 84 0;
#X connect 28 0 12 0;
#X connect 30 0 82 0;
#X connect 30 0 15 0;
#X connect 32 0 85 0;
#X connect 32 0 16 0;
#X connect 34 0 86 0;
#X connect 34 0 2 0;
#X connect 42 0 65 0;
#X connect 43 0 42 0;
#X connect 45 0 42 0;
#X connect 46 0 47 0;
#X connect 47 0 75 0;
#X connect 49 0 52 1;
#X connect 50 0 70 0;
#X connect 50 1 71 0;
#X connect 50 2 76 0;
#X connect 50 3 72 0;
#X connect 50 4 77 0;
#X connect 50 5 73 0;
#X connect 50 6 78 0;
#X connect 50 7 46 0;
#X connect 51 0 54 0;
#X connect 52 0 55 0;
#X connect 54 0 52 0;
#X connect 58 0 5 0;
#X connect 59 0 6 0;
#X connect 60 0 9 0;
#X connect 61 0 10 0;
#X connect 62 0 13 0;
#X connect 63 0 14 0;
#X connect 64 0 20 0;
#X connect 66 0 50 0;
#X connect 67 0 50 1;
#X connect 68 0 50 2;
#X connect 69 0 70 0;
#X connect 69 0 71 0;
#X connect 69 0 72 0;
#X connect 69 0 73 0;
#X connect 74 0 46 1;
#X connect 79 0 76 0;
#X connect 79 0 77 0;
#X connect 79 0 78 0;
#X connect 80 0 23 0;
#X connect 81 0 27 0;
#X connect 82 0 31 0;
#X connect 83 0 25 0;
#X connect 84 0 29 0;
#X connect 85 0 33 0;
#X connect 86 0 35 0;
#X coords 0 -1 1 1 220 380 1 200 100;
#X restore 1113 384 pd robot_10;
#N canvas 391 76 647 583 explication 0;
#X obj 101 101 cnv 15 220 380 empty empty empty 20 12 0 14 -228856
-66577 0;
#X text 102 108 1/ Ouvrir le fichier de données correspondant à chaque
robot en cliquant sur le bouton "open file". Ex: ROBOT 1 \, ouvrir
le fichier AAAPL, f 42;
#X text 102 157 2/ Si vous souhaitez que la lecture du fichier recommence
quand elle est terminée \, cliquez sur loop, f 42;
#X text 102 196 3/ Pour activer le flux de donnée de chaque robot
\, cliquez sur le bouton jaune en face du nom du robot, f 42;
#X text 102 236 4/ Cliquez sur COMMUNICATION, f 42;
#X text 102 254 5/ Cliquez sur GO_START, f 42;
#X coords 0 -1 1 1 220 380 1 100 100;
#X restore 1 385 pd explication;
#X coords 0 0 1 1 85 60 0;
