#N canvas 116 23 858 686 10;
#X obj 161 73 openpanel;
#X msg 193 152 read \$1;
#X obj 202 40 bng 15 250 50 0 empty empty empty 17 7 0 10 -262144 -1
-1;
#X msg 139 152 rewind;
#X obj 161 19 inlet;
#X obj 302 20 inlet;
#X obj 320 336 loadbang;
#X obj 232 637 outlet;
#X obj 161 106 t b a;
#X obj 64 636 outlet;
#X text 73 619 confidence;
#X floatatom 260 369 5 0 0 0 - - -, f 5;
#X msg 318 370 0;
#X obj 254 469 moses 255.01;
#X obj 58 106 print fichier;
#X obj 193 251 route \$1;
#X obj 754 636 outlet;
#X text 251 209 end of file;
#X obj 113 467 tgl 15 0 empty debug debug -40 7 0 10 -257985 -1 -1
0 1;
#N canvas 461 24 664 445 debug 0;
#X obj 120 44 inlet;
#X obj 120 116 spigot 0;
#X obj 42 99 inlet;
#X obj 212 44 inlet;
#X obj 212 116 spigot 0;
#X obj 304 44 inlet;
#X obj 304 116 spigot 0;
#X obj 396 44 inlet;
#X obj 396 116 spigot 0;
#X obj 120 367 print tradebot;
#X obj 489 202 i;
#X obj 489 224 + 1;
#X obj 489 224;
#X obj 489 44 inlet;
#X obj 489 116 spigot 0;
#X obj 489 139 bng 15 250 50 0 empty empty empty 17 7 0 10 -262144
-1 -1;
#X msg 538 177 1;
#X obj 538 154 inlet;
#X obj 120 260 sprintf conf: %i - percent: %i --- \$1 ALL %.2f %.10f
-- line %i, f 16;
#X connect 0 0 1 0;
#X connect 1 0 18 0;
#X connect 2 0 1 1;
#X connect 2 0 4 1;
#X connect 2 0 6 1;
#X connect 2 0 8 1;
#X connect 2 0 14 1;
#X connect 3 0 4 0;
#X connect 4 0 18 1;
#X connect 5 0 6 0;
#X connect 6 0 18 2;
#X connect 7 0 8 0;
#X connect 8 0 18 3;
#X connect 10 0 11 0;
#X connect 11 0 10 1;
#X connect 11 0 18 4;
#X connect 13 0 14 0;
#X connect 14 0 15 0;
#X connect 15 0 10 0;
#X connect 16 0 10 1;
#X connect 17 0 16 0;
#X connect 18 0 9 0;
#X restore 124 526 pd debug;
#X obj 193 208 textfile;
#X msg 624 331 R;
#X msg 500 329 G;
#X msg 562 331 B;
#X obj 384 269 route HOLD STRONG_HOLD SELL STRONG_SELL BUY STRONG_BUY
;
#X obj 313 638 outlet;
#N canvas 478 23 605 480 operation 0;
#X obj 100 19 inlet;
#X obj 404 454 outlet;
#X obj 89 452 outlet;
#X obj 321 34 loadbang;
#X obj 318 154 f;
#X floatatom 318 182 5 0 0 0 - - -, f 5;
#X obj 394 33 r reset;
#X msg 319 68 1;
#X obj 151 266 -;
#X obj 147 353 abs;
#X obj 407 306 >= 0;
#X obj 148 294 /;
#X obj 181 33 loadbang;
#X obj 201 153 f;
#X floatatom 201 181 5 0 0 0 - - -, f 5;
#X obj 254 32 r reset;
#X msg 179 67 0;
#X obj 222 370 log;
#X floatatom 148 386 5 0 0 0 - - -, f 5;
#X text 71 436 delta.balance;
#X text 380 435 sign.delta.balance;
#X obj 147 325 * 100;
#X text 22 261 Calcul du pourcentage de variation de la balance, f
19;
#X obj 497 417 print sign;
#X obj 13 413 print percent;
#X floatatom 49 65 5 0 0 0 - - -, f 5;
#X obj 162 127 t f b;
#X obj 310 115 t f b;
#X obj 284 413 print ln;
#X obj 12 386 spigot 0;
#X obj 57 367 tgl 15 0 empty empty empty 17 7 0 10 -262144 -1 -1 0
1;
#X obj 283 385 spigot 0;
#X obj 328 366 tgl 15 0 empty empty empty 17 7 0 10 -262144 -1 -1 0
1;
#X obj 497 388 spigot 0;
#X obj 542 369 tgl 15 0 empty empty empty 17 7 0 10 -262144 -1 -1 0
1;
#X obj 227 449 outlet;
#X text 209 433 ln.delta.balance;
#X connect 0 0 25 0;
#X connect 3 0 7 0;
#X connect 4 0 5 0;
#X connect 4 0 11 1;
#X connect 6 0 7 0;
#X connect 7 0 4 0;
#X connect 8 0 10 0;
#X connect 8 0 11 0;
#X connect 9 0 17 0;
#X connect 9 0 2 0;
#X connect 9 0 18 0;
#X connect 10 0 1 0;
#X connect 10 0 33 0;
#X connect 11 0 21 0;
#X connect 12 0 16 0;
#X connect 13 0 14 0;
#X connect 13 0 8 1;
#X connect 15 0 16 0;
#X connect 16 0 13 0;
#X connect 17 0 31 0;
#X connect 17 0 35 0;
#X connect 18 0 29 0;
#X connect 21 0 9 0;
#X connect 25 0 8 0;
#X connect 25 0 26 0;
#X connect 25 0 27 0;
#X connect 26 0 13 0;
#X connect 26 1 13 0;
#X connect 27 0 4 0;
#X connect 27 1 4 0;
#X connect 29 0 24 0;
#X connect 30 0 29 1;
#X connect 31 0 28 0;
#X connect 32 0 31 1;
#X connect 33 0 23 0;
#X connect 34 0 33 1;
#X restore 264 411 pd operation;
#X obj 606 640 outlet;
#X obj 677 642 outlet;
#X obj 415 640 outlet;
#X obj 502 640 outlet;
#X floatatom 361 457 5 0 0 0 - - -, f 5;
#N canvas 262 183 607 475 route_data_to_msg 0;
#X obj 114 11 inlet;
#X obj 40 12 inlet;
#X obj 257 11 inlet;
#X obj 190 11 inlet;
#X obj 328 11 inlet;
#X obj 162 240 gate 3;
#X msg 140 142 1;
#X msg 202 144 2;
#X msg 264 144 3;
#X floatatom 85 289 5 0 0 0 - - -, f 5;
#X floatatom 454 286 5 0 0 0 - - -, f 5;
#X floatatom 267 286 5 0 0 0 - - -, f 5;
#X floatatom 19 372 5 0 0 0 - - -, f 5;
#X floatatom 99 370 5 0 0 0 - - -, f 5;
#X obj 58 334 gate 2;
#X floatatom 382 375 5 0 0 0 - - -, f 5;
#X floatatom 462 373 5 0 0 0 - - -, f 5;
#X obj 421 337 gate 2;
#X floatatom 184 374 5 0 0 0 - - -, f 5;
#X floatatom 264 372 5 0 0 0 - - -, f 5;
#X obj 223 336 gate 2;
#X obj 94 441 outlet;
#X obj 16 438 outlet;
#X obj 263 442 outlet;
#X obj 181 441 outlet;
#X obj 462 443 outlet;
#X obj 381 442 outlet;
#X obj 68 244 + 1;
#X text 0 415 Hold + decrease;
#X text 70 391 Hold + increase;
#X text 155 415 Sell + decrease;
#X text 241 396 Sell + increase;
#X text 359 420 Buy + decrease;
#X text 440 392 Buy + increase;
#X text 258 30 Sell;
#X text 333 28 Buy;
#X text 45 31 Delta;
#X text 192 29 Hold;
#X text 122 29 Sign;
#X floatatom 35 142 5 0 0 0 - - -, f 5;
#X connect 0 0 27 0;
#X connect 1 0 39 0;
#X connect 2 0 7 0;
#X connect 3 0 6 0;
#X connect 4 0 8 0;
#X connect 5 0 9 0;
#X connect 5 1 11 0;
#X connect 5 2 10 0;
#X connect 6 0 5 0;
#X connect 7 0 5 0;
#X connect 8 0 5 0;
#X connect 9 0 14 1;
#X connect 10 0 17 1;
#X connect 11 0 20 1;
#X connect 12 0 22 0;
#X connect 13 0 21 0;
#X connect 14 0 12 0;
#X connect 14 1 13 0;
#X connect 15 0 26 0;
#X connect 16 0 25 0;
#X connect 17 0 15 0;
#X connect 17 1 16 0;
#X connect 18 0 24 0;
#X connect 19 0 23 0;
#X connect 20 0 18 0;
#X connect 20 1 19 0;
#X connect 27 0 20 0;
#X connect 27 0 14 0;
#X connect 27 0 17 0;
#X connect 39 0 5 1;
#X restore 415 528 pd route_data_to_msg;
#X text 365 408 operation 3 results: 1 delta.balance 2 ln.delta.balance
3 sign.delta.balance (0 decrease or 1 increase);
#X text 334 508 Route data depending on its sign and the kind of action
;
#X text 295 614 Hold + increase;
#X text 221 594 Hold + decrease;
#X text 409 597 Sell + decrease;
#X text 485 616 Sell + increase;
#X text 542 600 Buy + decrease;
#X text 640 618 Buy + increase;
#X obj 275 443 i;
#X obj 301 564 i;
#X obj 372 571 i;
#X obj 432 568 i;
#X obj 492 572 i;
#X obj 540 563 i;
#X obj 600 567 i;
#X obj 193 325 unpack s f f;
#X obj 129 377 * 255;
#X floatatom 58 413 5 0 0 0 - - -, f 5;
#X obj 757 228 bng 15 250 50 0 empty empty empty 17 7 0 10 -262144
-1 -1;
#X text 759 619 end of file;
#X obj 473 20 inlet;
#X obj 301 155 bng 15 250 50 0 empty empty empty 17 7 0 10 -262144
-1 -1;
#X text 472 39 reset;
#X text 309 40 pulse;
#X connect 0 0 8 0;
#X connect 0 0 14 0;
#X connect 1 0 20 0;
#X connect 2 0 0 0;
#X connect 3 0 20 0;
#X connect 4 0 0 0;
#X connect 5 0 54 0;
#X connect 6 0 12 0;
#X connect 8 0 3 0;
#X connect 8 1 1 0;
#X connect 11 0 26 0;
#X connect 12 0 19 6;
#X connect 13 0 19 2;
#X connect 13 0 32 0;
#X connect 15 0 24 0;
#X connect 15 0 48 0;
#X connect 18 0 19 0;
#X connect 20 0 15 0;
#X connect 20 0 19 5;
#X connect 20 1 12 0;
#X connect 20 1 51 0;
#X connect 21 0 32 4;
#X connect 22 0 32 2;
#X connect 23 0 32 3;
#X connect 24 0 22 0;
#X connect 24 1 22 0;
#X connect 24 2 23 0;
#X connect 24 3 23 0;
#X connect 24 4 21 0;
#X connect 24 5 21 0;
#X connect 26 0 41 0;
#X connect 26 2 31 0;
#X connect 31 0 32 1;
#X connect 32 0 42 0;
#X connect 32 1 43 0;
#X connect 32 2 44 0;
#X connect 32 3 45 0;
#X connect 32 4 46 0;
#X connect 32 5 47 0;
#X connect 41 0 13 0;
#X connect 42 0 7 0;
#X connect 43 0 25 0;
#X connect 44 0 29 0;
#X connect 45 0 30 0;
#X connect 46 0 27 0;
#X connect 47 0 28 0;
#X connect 48 1 19 3;
#X connect 48 1 49 0;
#X connect 48 2 19 4;
#X connect 48 2 11 0;
#X connect 49 0 19 1;
#X connect 49 0 50 0;
#X connect 50 0 9 0;
#X connect 51 0 16 0;
#X connect 53 0 12 0;
#X connect 53 0 3 0;
#X connect 54 0 20 0;
