#N canvas 727 197 683 653 10;
#X obj 101 101 cnv 15 188 117 empty empty ROBOT_\$1_\$2 20 12 0 14
-232753 -66577 0;
#X floatatom 166 125 5 0 100 0 confidence - -, f 5;
#X floatatom 252 126 5 0 0 0 balance - -, f 5;
#X text 161 58 vitesse;
#X obj 72 -391 r data_\$1;
#X obj 142 -331 t f f;
#X msg 194 -246 UP;
#X obj 72 -305 unpack s f f;
#X obj 175 -306 > 0;
#X obj 175 -284 sel 0 1;
#X msg 175 -220 DOWN;
#X obj -96 -331 sel STRONG_HOLD STRONG_SELL STRONG_BUY;
#X msg -96 -280 HOLD;
#X obj 106 22 pack s f f s;
#X obj 127 -233 t b f;
#X obj 127 -198 i \$2;
#X msg -21 -280 SELL;
#X msg 54 -278 BUY;
#X msg 17 63 /ROBOT_\$2/\$1_\$4 \$3;
#X obj 185 -193 symbol;
#X obj 154 -168 abs;
#X obj 281 -233 * 100;
#X text 334 -229 confidence;
#X obj -7 162 spigot 1;
#X obj 104 144 tgl 15 0 empty empty send\ OSC 17 7 0 10 -262144 -1
-1 0 1;
#X obj 30 103 loadbang;
#X msg 31 127 1;
#X obj 235 167 bng 15 250 50 0 empty empty PANIC 17 7 0 10 -262144
-1 -1;
#X msg 282 259 0;
#X obj 255 232 t b b;
#X obj -55 98 r \$0_sendOSC;
#X obj 282 282 s \$0_sendOSC;
#X obj 315 -13 t b f;
#X obj 315 11 i \$2;
#X obj 315 34 pack f f;
#X msg 271 63 /ROBOT_\$1/CONF \$2;
#X obj 224 282 pack f 0;
#X obj 224 259 i \$2;
#X msg 224 302 /ROBOT_\$1/CONF \$2;
#X obj 235 187 bng 15 250 50 0 empty empty SORTIE 17 7 0 10 -262144
-1 -1;
#X msg 141 255 0;
#X obj 114 228 t b b;
#X obj 141 278 s \$0_sendOSC;
#X obj 83 278 pack f 0;
#X obj 83 255 i \$2;
#X obj 404 144 r robotPanic;
#X msg 83 298 /ROBOT_\$1/HOLD_UP \$2;
#X obj 409 115 r robotSortie;
#X obj -91 77 r robot_sendOSC;
#X obj 154 -5 i 0;
#X obj 154 -82 log;
#X floatatom 154 -101 5 0 0 0 - - -, f 5;
#X floatatom 154 -62 5 0 0 0 - - -, f 5;
#X obj 154 -122 + 1;
#X obj 154 -143 * 1000;
#X obj 154 -43 min 10;
#X msg -89 212 /ROBOT_\$1/CONF 100;
#X obj 235 148 bng 15 250 50 0 empty empty test 17 7 0 10 -262144 -1
-1;
#X obj -71 162 i \$2;
#X symbolatom 106 188 20 0 0 0 - toDisplay_#0 -, f 20;
#X obj 123 351 prepend set;
#X obj -9 358 s SEND_OSC_ROBOT;
#X obj 225 352 s toDisplay_\$0;
#X obj -9 321 list;
#X obj -69 183 t f f;
#X msg -89 242 /ROBOT_\$1/BUY_UP 5;
#X connect 1 0 32 0;
#X connect 4 0 7 0;
#X connect 5 0 14 0;
#X connect 5 1 8 0;
#X connect 6 0 19 0;
#X connect 7 0 11 0;
#X connect 7 1 21 0;
#X connect 7 2 5 0;
#X connect 8 0 9 0;
#X connect 9 0 10 0;
#X connect 9 1 6 0;
#X connect 10 0 19 0;
#X connect 11 0 12 0;
#X connect 11 1 16 0;
#X connect 11 2 17 0;
#X connect 12 0 13 0;
#X connect 13 0 18 0;
#X connect 14 0 15 0;
#X connect 14 1 20 0;
#X connect 15 0 13 1;
#X connect 16 0 13 0;
#X connect 17 0 13 0;
#X connect 18 0 23 0;
#X connect 19 0 13 3;
#X connect 20 0 54 0;
#X connect 21 0 1 0;
#X connect 23 0 63 0;
#X connect 24 0 23 1;
#X connect 25 0 26 0;
#X connect 26 0 24 0;
#X connect 27 0 29 0;
#X connect 28 0 31 0;
#X connect 29 0 37 0;
#X connect 29 1 28 0;
#X connect 30 0 24 0;
#X connect 32 0 33 0;
#X connect 32 1 34 1;
#X connect 33 0 34 0;
#X connect 34 0 35 0;
#X connect 35 0 23 0;
#X connect 36 0 38 0;
#X connect 37 0 36 0;
#X connect 38 0 63 0;
#X connect 39 0 41 0;
#X connect 40 0 42 0;
#X connect 41 0 44 0;
#X connect 41 1 40 0;
#X connect 43 0 46 0;
#X connect 44 0 43 0;
#X connect 45 0 27 0;
#X connect 46 0 63 0;
#X connect 47 0 39 0;
#X connect 48 0 24 0;
#X connect 49 0 13 2;
#X connect 49 0 2 0;
#X connect 50 0 52 0;
#X connect 51 0 50 0;
#X connect 52 0 55 0;
#X connect 53 0 51 0;
#X connect 54 0 53 0;
#X connect 55 0 49 0;
#X connect 56 0 63 0;
#X connect 57 0 58 0;
#X connect 58 0 64 0;
#X connect 60 0 62 0;
#X connect 63 0 61 0;
#X connect 63 0 60 0;
#X connect 64 0 56 0;
#X connect 64 1 65 0;
#X connect 65 0 63 0;
#X coords 0 -1 1 1 190 119 1 100 100;
