#N canvas 562 259 667 412 10;
#X obj 35 58 cnv 15 188 98 empty empty TENS_\$1_\$2 27 10 0 14 -233280
-66577 0;
#X obj 68 92 hsl 140 15 0 255 0 0 nos nor empty -2 -8 0 10 -262144
-1 -1 0 0;
#X obj 68 133 hsl 140 15 1 255 0 0 nos nor empty -2 -8 0 10 -262144
-1 -1 0 0;
#X text 104 75 pulse rate;
#X text 89 113 pulse width;
#X msg 336 43 0;
#X obj 205 60 tgl 15 0 nos TENS_FULL empty 17 7 0 10 -228856 -1 -1
0 1;
#X obj 361 -2 r reset;
#X obj 295 100 * 255;
#X text 171 61 full;
#X floatatom 35 91 5 0 0 0 - - -, f 5;
#X msg 202 300 /ESP_TENS_\$2/pot 0 \$1;
#X msg 11 298 /ESP_TENS_\$2/pot 1 \$1;
#X obj 11 275 pack f s;
#X obj 51 248 symbol \$2;
#X obj 11 210 t f b;
#X obj 11 241 i 0;
#X obj 202 272 pack f s;
#X obj 242 248 symbol \$2;
#X obj 202 210 t f b;
#X obj 202 241 i 0;
#X text 156 -181 t.balance;
#X obj 45 -300 r data_\$1;
#X obj 45 -251 route STRONG_HOLD STRONG_SELL STRONG_BUY;
#X obj 45 -218 unpack f f;
#X text -22 -178 confidence - balance;
#X floatatom 35 132 5 0 0 0 - - -, f 5;
#X msg 1 163 set \$1;
#X msg 58 30 set \$1;
#X obj 45 -279 route list;
#X obj 11 320 s SEND_OSC_TENS;
#X obj 202 322 s SEND_OSC_TENS;
#X obj 112 30 min 255;
#X obj 116 -78 log;
#X floatatom 116 -97 5 0 0 0 - - -, f 5;
#X floatatom 116 -58 5 0 0 0 - - -, f 5;
#X obj 116 -159 abs;
#X obj 116 -118 + 1;
#X obj 116 -139 * 1000;
#X floatatom 116 -19 5 0 0 0 - - -, f 5;
#X obj 116 -39 * 35;
#X text 165 -158 Use log to play with huge difference;
#X obj 336 21 r tensPanic;
#X obj 45 -122 - 0.5;
#X obj 45 -47 * 500;
#X obj 45 -7 min 255;
#X obj 113 6 max 1;
#X text 155 6 max 1 to have light always on;
#X obj 365 320 s SEND_OSC_TENS;
#X obj 203 112 bng 15 250 50 0 empty empty test -25 7 0 10 -262144
-1 -1;
#X obj 362 250 symbol \$2;
#X msg 365 298 /ESP_TENS_\$1/ws2812Test 1;
#X connect 1 0 19 0;
#X connect 1 0 28 0;
#X connect 2 0 15 0;
#X connect 2 0 27 0;
#X connect 5 0 6 0;
#X connect 6 0 8 0;
#X connect 7 0 5 0;
#X connect 8 0 1 0;
#X connect 8 0 2 0;
#X connect 10 0 1 0;
#X connect 11 0 31 0;
#X connect 12 0 30 0;
#X connect 13 0 12 0;
#X connect 14 0 13 1;
#X connect 15 0 16 0;
#X connect 15 1 14 0;
#X connect 16 0 13 0;
#X connect 17 0 11 0;
#X connect 18 0 17 1;
#X connect 19 0 20 0;
#X connect 19 1 18 0;
#X connect 20 0 17 0;
#X connect 22 0 29 0;
#X connect 23 0 24 0;
#X connect 23 1 24 0;
#X connect 23 2 24 0;
#X connect 24 0 43 0;
#X connect 24 1 36 0;
#X connect 26 0 2 0;
#X connect 27 0 26 0;
#X connect 28 0 10 0;
#X connect 29 0 23 0;
#X connect 32 0 10 0;
#X connect 33 0 35 0;
#X connect 34 0 33 0;
#X connect 35 0 40 0;
#X connect 36 0 38 0;
#X connect 37 0 34 0;
#X connect 38 0 37 0;
#X connect 39 0 46 0;
#X connect 40 0 39 0;
#X connect 42 0 5 0;
#X connect 43 0 44 0;
#X connect 44 0 45 0;
#X connect 45 0 26 0;
#X connect 46 0 32 0;
#X connect 49 0 50 0;
#X connect 50 0 51 0;
#X connect 51 0 48 0;
#X coords 0 -1 1 1 190 100 1 34 57;
