#N canvas 375 66 1065 694 10;
#X obj 208 115 openpanel;
#X msg 240 194 read \$1;
#X obj 249 82 bng 15 250 50 0 empty empty empty 17 7 0 10 -262144 -1
-1;
#X msg 186 194 rewind;
#X obj 348 197 bng 15 250 50 0 empty empty empty 17 7 0 10 -262144
-1 -1;
#X obj 348 147 tgl 15 0 empty empty empty 17 7 0 10 -262144 -1 -1 1
1;
#X obj 364 407 loadbang;
#X obj 208 148 t b a;
#X obj 756 265 route STRONG_HOLD STRONG_SELL STRONG_BUY;
#X floatatom 306 438 5 0 0 0 - - -, f 5;
#X obj 364 498 f;
#X floatatom 364 526 5 0 0 0 - - -, f 5;
#X msg 364 441 0;
#X obj 307 515 -;
#X obj 440 407 r reset;
#X obj 105 148 print fichier;
#X obj 348 171 metro 1000;
#X obj 240 293 route \$1;
#X obj 14 172 r reset;
#X obj 442 267 outlet;
#X text 411 293 end of file;
#X obj 240 250 textfile;
#X text 375 468 valeur de l'action;
#X obj 306 464 t f f b;
#X obj 548 215 f;
#X obj 548 241 + 1;
#X msg 474 195 0;
#X obj 498 356 cnv 15 188 203 empty empty TRADEBOT_\$1 20 12 0 14 -233017
-66577 0;
#X floatatom 624 525 10 0 0 0 diff - -, f 10;
#X floatatom 611 389 5 0 0 1 line - -, f 5;
#X floatatom 564 523 5 0 0 0 confidence confidence_#1 -, f 5;
#X obj 347 49 r start_\$1;
#X obj 524 388 tgl 72 0 start_\$1 empty start 23 32 0 10 -262144 -1
-1 1 1;
#X obj 67 171 r reset_\$1;
#X obj 501 140 r reset_\$1;
#X obj 575 141 r reset;
#X obj 611 412 bng 15 250 50 0 reset_\$1 empty reset 17 7 0 10 -262144
-1 -1;
#X obj 418 52 r frequency;
#X obj 524 465 bng 15 250 50 0 empty isData_\$1 data 17 7 0 10 -262144
-1 -1;
#X obj 611 434 bng 15 250 50 0 open_\$1 empty open 17 7 0 10 -262144
-1 -1;
#X obj 240 403 unpack s f f;
#X obj 99 338 s isData_\$1;
#X obj 241 565 pack s f f;
#X obj 241 617 s data_\$1;
#X text 6 404 On créé un nouveau pack;
#X text 8 429 Avec la difference de valeur du titre;
#X obj 128 561 s confidence_\$1;
#X symbolatom 559 504 15 0 0 0 - - -, f 15;
#X obj 265 362 print TEXT;
#X floatatom 624 543 10 0 0 0 log - -, f 10;
#X obj 203 52 inlet;
#X obj 251 54 r open_\$1;
#X obj 633 208 r EMERGENCY;
#X connect 0 0 7 0;
#X connect 0 0 15 0;
#X connect 1 0 21 0;
#X connect 2 0 0 0;
#X connect 3 0 21 0;
#X connect 4 0 21 0;
#X connect 4 0 24 0;
#X connect 5 0 16 0;
#X connect 6 0 12 0;
#X connect 7 0 3 0;
#X connect 7 1 1 0;
#X connect 9 0 23 0;
#X connect 10 0 11 0;
#X connect 10 0 13 1;
#X connect 12 0 10 0;
#X connect 13 0 28 0;
#X connect 13 0 42 2;
#X connect 14 0 12 0;
#X connect 16 0 4 0;
#X connect 17 0 40 0;
#X connect 17 0 41 0;
#X connect 18 0 3 0;
#X connect 21 0 17 0;
#X connect 21 1 19 0;
#X connect 21 1 3 0;
#X connect 21 1 12 0;
#X connect 23 0 10 1;
#X connect 23 1 13 0;
#X connect 23 2 10 0;
#X connect 24 0 25 0;
#X connect 25 0 24 1;
#X connect 25 0 29 0;
#X connect 26 0 24 0;
#X connect 31 0 5 0;
#X connect 33 0 3 0;
#X connect 34 0 26 0;
#X connect 35 0 26 0;
#X connect 37 0 16 1;
#X connect 40 0 42 0;
#X connect 40 0 47 0;
#X connect 40 1 42 1;
#X connect 40 1 46 0;
#X connect 40 2 9 0;
#X connect 42 0 43 0;
#X connect 50 0 7 0;
#X connect 50 0 15 0;
#X connect 51 0 2 0;
#X connect 52 0 32 0;
#X coords 0 -1 1 1 190 205 1 497 355;
