#N canvas 412 62 694 760 10;
#X obj 101 101 cnv 15 188 117 empty empty ROBOT_\$1_\$2 20 12 0 14
-232753 -66577 0;
#X floatatom 166 125 5 0 100 0 confidence - -, f 5;
#X floatatom 252 126 5 0 0 0 balance - -, f 5;
#X text 161 58 vitesse;
#X obj -94 -591 r data_\$1;
#X obj -12 -442 t f f;
#X msg 28 -356 UP;
#X obj -94 -533 unpack s f f;
#X obj 9 -416 > 0;
#X obj 9 -394 sel 0 1;
#X msg 9 -330 DOWN;
#X obj -262 -501 sel STRONG_HOLD STRONG_SELL STRONG_BUY;
#X msg -262 -450 HOLD;
#X obj -60 -88 pack s f f s;
#X obj -39 -343 t b f;
#X obj -39 -308 i \$2;
#X msg -187 -450 SELL;
#X msg -112 -448 BUY;
#X msg -60 -64 /ROBOT_\$2/\$1_\$4 \$3;
#X obj 19 -303 symbol;
#X obj -12 -278 abs;
#X obj 126 -458 * 100;
#X text 177 -460 confidence;
#X obj 105 145 tgl 15 0 empty empty from_tradebot 17 7 0 10 -262144
-1 -1 1 1;
#X obj 235 167 bng 15 250 50 0 empty empty PANIC 17 7 0 10 -262144
-1 -1;
#X msg 282 259 0;
#X obj 282 282 s \$0_sendOSC;
#X obj 135 -243 t b f;
#X obj 135 -219 i \$2;
#X obj 135 -196 pack f f;
#X msg 135 -167 /ROBOT_\$1/CONF \$2;
#X obj 224 282 pack f 0;
#X obj 224 259 i \$2;
#X msg 224 304 /ROBOT_\$1/CONF \$2;
#X obj 235 187 bng 15 250 50 0 empty empty SORTIE 17 7 0 10 -262144
-1 -1;
#X msg 141 255 0;
#X obj 114 228 t b b;
#X obj 141 278 s \$0_sendOSC;
#X obj 83 278 pack f 0;
#X obj 83 255 i \$2;
#X obj 402 149 r robotPanic;
#X msg 83 304 /ROBOT_\$1/HOLD_UP \$2;
#X obj 402 170 r robotSortie;
#X obj -12 -115 i 0;
#X obj -12 -192 log;
#X floatatom -12 -211 5 0 0 0 - - -, f 5;
#X floatatom -12 -172 5 0 0 0 - - -, f 5;
#X obj -12 -232 + 1;
#X obj -12 -253 * 1000;
#X obj -12 -153 min 10;
#X msg 373 304 /ROBOT_\$1/CONF 100;
#X obj 235 148 bng 15 250 50 0 empty empty test 17 7 0 10 -262144 -1
-1;
#X obj 391 250 i \$2;
#X symbolatom 106 165 20 0 0 0 - toDisplay_#0 -, f 20;
#X obj -225 420 s SEND_OSC_ROBOT;
#X obj -192 386 s toDisplay_\$0;
#X obj -60 321 list;
#X obj 393 271 t f f;
#X msg 499 304 /ROBOT_\$1/BUY_UP 5;
#X obj 135 -316 s confidenceIn_\$0;
#X obj 135 -275 r confidenceOut_\$0;
#X obj 153 78 r confidenceIn_\$0;
#X obj 344 128 s confidenceOut_\$0;
#X obj -30 109 r robot_fromTradebot;
#X obj -35 182 s fromTradebotOut_\$0;
#X obj 127 -41 r fromTradebotOut_\$0;
#X obj -60 -25 spigot 0;
#X obj -4 -588 r fromTradebotOut_\$0;
#X obj -94 -557 spigot 0;
#X obj -32 46 r robotPanic;
#X msg -32 72 0;
#X obj 50 392 udpSendRobot \$2;
#X obj 107 199 tgl 15 0 connect_\$0 empty connect 17 7 0 10 -262144
-1 -1 1 1;
#X obj 178 200 tgl 15 0 empty isConnected_\$0 isConnected 17 7 0 10
-262144 -1 -1 1 1;
#X obj 50 420 s isConnected_\$0;
#X obj 137 371 r connect_\$0;
#X obj -169 183 r robotConnect;
#X obj -60 348 prepend set;
#X obj 53 343 prepend send;
#X obj 255 232 t b b b;
#X connect 1 0 62 0;
#X connect 4 0 68 0;
#X connect 5 0 14 0;
#X connect 5 1 8 0;
#X connect 6 0 19 0;
#X connect 7 0 11 0;
#X connect 7 1 21 0;
#X connect 7 2 5 0;
#X connect 8 0 9 0;
#X connect 9 0 10 0;
#X connect 9 1 6 0;
#X connect 10 0 19 0;
#X connect 11 0 12 0;
#X connect 11 1 16 0;
#X connect 11 2 17 0;
#X connect 12 0 13 0;
#X connect 13 0 18 0;
#X connect 14 0 15 0;
#X connect 14 1 20 0;
#X connect 15 0 13 1;
#X connect 16 0 13 0;
#X connect 17 0 13 0;
#X connect 18 0 66 0;
#X connect 19 0 13 3;
#X connect 20 0 48 0;
#X connect 21 0 59 0;
#X connect 23 0 64 0;
#X connect 24 0 79 0;
#X connect 25 0 26 0;
#X connect 27 0 28 0;
#X connect 27 1 29 1;
#X connect 28 0 29 0;
#X connect 29 0 30 0;
#X connect 30 0 66 0;
#X connect 31 0 33 0;
#X connect 32 0 31 0;
#X connect 33 0 56 0;
#X connect 34 0 36 0;
#X connect 35 0 37 0;
#X connect 36 0 39 0;
#X connect 36 1 35 0;
#X connect 38 0 41 0;
#X connect 39 0 38 0;
#X connect 40 0 24 0;
#X connect 41 0 56 0;
#X connect 42 0 34 0;
#X connect 43 0 13 2;
#X connect 43 0 2 0;
#X connect 44 0 46 0;
#X connect 45 0 44 0;
#X connect 46 0 49 0;
#X connect 47 0 45 0;
#X connect 48 0 47 0;
#X connect 49 0 43 0;
#X connect 50 0 56 0;
#X connect 51 0 52 0;
#X connect 52 0 57 0;
#X connect 56 0 77 0;
#X connect 56 0 78 0;
#X connect 57 0 50 0;
#X connect 57 1 58 0;
#X connect 58 0 56 0;
#X connect 60 0 27 0;
#X connect 61 0 1 0;
#X connect 63 0 23 0;
#X connect 65 0 66 1;
#X connect 66 0 56 0;
#X connect 67 0 68 1;
#X connect 68 0 7 0;
#X connect 69 0 70 0;
#X connect 70 0 23 0;
#X connect 71 0 74 0;
#X connect 75 0 71 1;
#X connect 76 0 72 0;
#X connect 77 0 55 0;
#X connect 78 0 71 0;
#X connect 79 0 32 0;
#X connect 79 1 25 0;
#X connect 79 2 70 0;
#X coords 0 -1 1 1 190 119 1 100 100;
