#N canvas 174 78 745 533 10;
#X obj 84 388 line, f 10;
#X floatatom 84 437 5 0 0 0 - - -, f 5;
#X obj 84 414 int;
#X msg 241 348 0 2000;
#X obj 136 219 * 1000;
#X floatatom 135 168 5 0 0 0 - - -, f 5;
#X msg 81 285 \$1 \$2;
#X obj 38 81 bng 15 250 50 0 empty empty empty 17 7 0 10 -262144 -1
-1;
#X msg 162 305 set 0 \$2;
#X obj 80 261 pack 255 i;
#X obj 424 299 delay, f 10;
#X floatatom 484 170 5 0 0 0 - - -, f 5;
#X obj 485 215 * 1000;
#X obj 42 120 t b b b;
#X obj 423 264 +;
#X obj 37 23 inlet;
#X obj 137 22 inlet;
#X obj 478 22 inlet;
#X obj 84 476 outlet;
#X text 45 44 hit;
#X text 148 44 time to go up and down;
#X text 395 42 pause between going up and down;
#X connect 0 0 2 0;
#X connect 1 0 18 0;
#X connect 2 0 1 0;
#X connect 3 0 0 0;
#X connect 4 0 9 1;
#X connect 4 0 14 0;
#X connect 5 0 4 0;
#X connect 6 0 0 0;
#X connect 7 0 13 0;
#X connect 8 0 3 0;
#X connect 9 0 6 0;
#X connect 9 0 8 0;
#X connect 10 0 3 0;
#X connect 11 0 12 0;
#X connect 12 0 14 1;
#X connect 13 0 9 0;
#X connect 13 1 5 0;
#X connect 13 2 11 0;
#X connect 14 0 10 0;
#X connect 15 0 7 0;
#X connect 16 0 5 0;
#X connect 17 0 11 0;
