#N canvas 566 111 756 650 10;
#X obj 35 58 cnv 15 188 128 empty empty TENS_\$1_\$2 27 10 0 14 -233280
-66577 0;
#X obj 68 112 hsl 140 15 0 255 0 0 nos nor empty -2 -8 0 10 -262144
-1 -1 0 0;
#X obj 68 148 hsl 140 15 1 255 0 0 nos nor empty -2 -8 0 10 -262144
-1 -1 0 0;
#X text 104 95 pulse rate;
#X text 89 133 pulse width;
#X msg 443 -27 0, f 4;
#X obj 205 80 tgl 15 0 nos TENS_FULL empty 17 7 0 10 -228856 -1 -1
0 1;
#X obj 394 -48 r reset;
#X obj 438 108 * 255;
#X text 171 81 full;
#X floatatom 35 112 5 0 0 0 - - -, f 5;
#X msg 202 300 /ESP_TENS_\$2/pot 0 \$1;
#X msg 11 298 /ESP_TENS_\$2/pot 1 \$1;
#X obj 11 275 pack f s;
#X obj 51 248 symbol \$2;
#X obj 11 210 t f b;
#X obj 11 241 i 0;
#X obj 202 272 pack f s;
#X obj 242 248 symbol \$2;
#X obj 202 210 t f b;
#X obj 202 241 i 0;
#X text 198 -301 t.balance;
#X obj 45 -450 r data_\$1;
#X obj 45 -371 route STRONG_HOLD STRONG_SELL STRONG_BUY;
#X obj 45 -338 unpack f f;
#X floatatom 35 147 5 0 0 0 - - -, f 5;
#X msg -24 153 set \$1;
#X msg -24 114 set \$1;
#X obj 45 -429 route list;
#X obj -103 355 s SEND_OSC_TENS;
#X obj 158 -95 min 255;
#X obj 158 -198 log;
#X floatatom 158 -217 5 0 0 0 - - -, f 5;
#X floatatom 158 -178 5 0 0 0 - - -, f 5;
#X obj 158 -279 abs;
#X obj 158 -238 + 1;
#X obj 158 -259 * 1000;
#X floatatom 158 -139 5 0 0 0 - - -, f 5;
#X obj 158 -159 * 35;
#X text 207 -278 Use log to play with huge difference;
#X obj 443 -49 r tensPanic;
#X obj 45 -274 - 0.5;
#X obj 45 -234 * 500;
#X obj 45 -194 min 255;
#X obj 158 -119 max 1;
#X text 197 -119 max 1 to have light always on;
#X obj 203 132 bng 15 250 50 0 empty empty test -25 7 0 10 -262144
-1 -1;
#X obj 362 250 symbol \$2;
#X msg 365 298 /ESP_TENS_\$1/ws2812Test 1;
#X obj 481 108 * 255;
#X obj 438 79 t f f;
#X floatatom 158 -74 5 0 0 0 - - -, f 5;
#X floatatom 45 -154 5 0 0 0 - - -, f 5;
#X obj -135 88 r pulseRateIn_\$0;
#X obj -137 134 r pulseWidthIn_\$0;
#X obj 235 24 r fullIn_\$0;
#X obj 438 29 s fullIn_\$0;
#X obj 438 5 tgl 15 0 full empty empty 17 7 0 10 -228856 -1 -1 0 1
;
#X obj 318 -47 r TENS_FULL;
#X obj 232 102 s fullOut_\$0;
#X obj 438 50 r fullOut_\$0;
#X obj 438 137 s pulseRateIn_\$0;
#X obj 481 218 s pulseWidthIn_\$0;
#X obj 158 -52 s pulseRateIn_\$0;
#X obj 45 -50 s pulseWidthIn_\$0;
#X text -86 -299 confidence;
#X obj 39 78 tgl 15 0 empty empty from_tradebot 17 7 0 10 -262144 -1
-1 0 1;
#X obj -129 8 r tens_fromTradebot;
#X obj -141 61 s fromTradebot_\$0;
#X obj 45 -397 spigot 1;
#X obj 164 -435 r fromTradebot_\$0;
#X obj 12 6 r tensPanic;
#X msg 12 28 0;
#X obj 124 432 s isConnected_\$0;
#X obj 221 383 r connect_\$0;
#X obj 60 167 tgl 15 0 connect_\$0 empty connect 17 7 0 10 -262144
-1 -1 1 1;
#X obj 131 168 tgl 15 0 empty isConnected_\$0 isConnected 17 7 0 10
-262144 -1 -1 1 1;
#X obj 124 404 udpSendTens \$2;
#X obj -123 155 r tensConnect;
#X obj 124 343 list;
#X obj 124 370 prepend send;
#X obj 479 176 max 3;
#X connect 1 0 19 0;
#X connect 1 0 27 0;
#X connect 2 0 15 0;
#X connect 2 0 26 0;
#X connect 5 0 57 0;
#X connect 6 0 59 0;
#X connect 7 0 5 0;
#X connect 8 0 61 0;
#X connect 10 0 1 0;
#X connect 11 0 79 0;
#X connect 12 0 79 0;
#X connect 13 0 12 0;
#X connect 14 0 13 1;
#X connect 15 0 16 0;
#X connect 15 1 14 0;
#X connect 16 0 13 0;
#X connect 17 0 11 0;
#X connect 18 0 17 1;
#X connect 19 0 20 0;
#X connect 19 1 18 0;
#X connect 20 0 17 0;
#X connect 22 0 28 0;
#X connect 23 0 24 0;
#X connect 23 1 24 0;
#X connect 23 2 24 0;
#X connect 24 0 41 0;
#X connect 24 1 34 0;
#X connect 25 0 2 0;
#X connect 26 0 25 0;
#X connect 27 0 10 0;
#X connect 28 0 69 0;
#X connect 30 0 51 0;
#X connect 31 0 33 0;
#X connect 32 0 31 0;
#X connect 33 0 38 0;
#X connect 34 0 36 0;
#X connect 35 0 32 0;
#X connect 36 0 35 0;
#X connect 37 0 44 0;
#X connect 38 0 37 0;
#X connect 40 0 5 0;
#X connect 41 0 42 0;
#X connect 42 0 43 0;
#X connect 43 0 52 0;
#X connect 44 0 30 0;
#X connect 46 0 47 0;
#X connect 47 0 48 0;
#X connect 48 0 79 0;
#X connect 49 0 81 0;
#X connect 50 0 8 0;
#X connect 50 1 49 0;
#X connect 51 0 63 0;
#X connect 52 0 64 0;
#X connect 53 0 1 0;
#X connect 54 0 2 0;
#X connect 55 0 6 0;
#X connect 57 0 56 0;
#X connect 58 0 57 0;
#X connect 60 0 50 0;
#X connect 66 0 68 0;
#X connect 67 0 66 0;
#X connect 69 0 23 0;
#X connect 70 0 69 1;
#X connect 71 0 72 0;
#X connect 72 0 66 0;
#X connect 74 0 77 1;
#X connect 77 0 73 0;
#X connect 78 0 75 0;
#X connect 79 0 80 0;
#X connect 80 0 77 0;
#X connect 81 0 62 0;
#X coords 0 -1 1 1 190 130 1 34 57;
