#N canvas 584 97 455 379 10;
#X obj 203 108 textfile;
#X obj 157 -27 bng 15 250 50 0 empty empty empty 17 7 0 10 -262144
-1 -1;
#X msg 142 74 rewind;
#X msg 100 74 bang;
#X obj 157 -4 t b b b;
#X obj 153 250 outlet;
#X obj 229 254 tgl 15 0 empty empty empty 17 7 0 10 -262144 -1 -1 1
1;
#X obj 203 139 symbol;
#X obj 25 73 inlet;
#X obj 156 -96 inlet;
#X obj 156 -66 sel 1 0;
#X msg 301 -11 disconnect;
#X obj 208 -95 tgl 15 0 empty empty empty 17 7 0 10 -262144 -1 -1 0
1;
#X msg 203 74 read ip/tens_\$1.txt;
#X obj 203 26 symbol \$1;
#X obj 25 166 mrpeach/packOSC;
#X obj 39 122 print TENS_\$1:::;
#X obj 310 214 print TENS_\$1:CONNECT::;
#X obj 155 209 mrpeach/udpsend 12345;
#X msg 203 163 connect \$1 12345;
#X connect 0 0 7 0;
#X connect 1 0 4 0;
#X connect 2 0 0 0;
#X connect 3 0 0 0;
#X connect 4 0 3 0;
#X connect 4 1 2 0;
#X connect 4 2 14 0;
#X connect 7 0 19 0;
#X connect 8 0 15 0;
#X connect 8 0 16 0;
#X connect 9 0 10 0;
#X connect 10 0 1 0;
#X connect 10 1 11 0;
#X connect 11 0 18 0;
#X connect 12 0 10 0;
#X connect 13 0 0 0;
#X connect 14 0 13 0;
#X connect 15 0 18 0;
#X connect 18 0 5 0;
#X connect 18 0 6 0;
#X connect 19 0 17 0;
#X connect 19 0 18 0;
